<?xml version="1.0" standalone="no"?>
<!DOCTYPE svg PUBLIC "-//W3C//DTD SVG 1.1//EN" "http://www.w3.org/Graphics/SVG/1.1/DTD/svg11.dtd" >
<svg xmlns="http://www.w3.org/2000/svg" xmlns:xlink="http://www.w3.org/1999/xlink" version="1.1">
<metadata>
Created by FontForge 20170731 at Thu Mar 30 16:49:40 2023
 By Aleksey,,,
</metadata>
<defs>
<font id="Jaapokki-Regular" horiz-adv-x="1228" >
  <font-face 
    font-family="Jaapokki"
    font-weight="400"
    font-stretch="normal"
    units-per-em="2048"
    panose-1="0 0 5 0 0 0 0 0 0 0"
    ascent="1638"
    descent="-410"
    x-height="883"
    cap-height="1436"
    bbox="-213 -801 2128 2134"
    underline-thickness="102"
    underline-position="-409"
    unicode-range="U+000D-FB03"
  />
<missing-glyph horiz-adv-x="512" 
 />
    <glyph glyph-name="f_f.liga" unicode="ff" horiz-adv-x="1574" 
d="M1110 1049v-168h244v-238h-244v-643h-287v643h-307v-643h-287v643h-147v238h147v168q0 226 121 356q115 121 299 121q72 0 147 -42.5t122 -111.5q14 21 26 33q115 121 299 121q84 0 161 -37t136 -105l-215 -188q-38 43 -82 43q-16 0 -26 -1t-28 -6t-30 -17t-24.5 -32
t-18.5 -54t-6 -80zM823 881v168q0 52 11 120q-64 70 -185 70q-16 0 -26 -1t-28 -6t-30 -17t-24.5 -32t-18.5 -54t-6 -80v-168h307z" />
    <glyph glyph-name="f_f_i.liga" unicode="ffi" horiz-adv-x="1638" 
d="M1270 883h286v-883h-286v643h-160v-643h-287v643h-307v-643h-287v643h-147v238h147v168q0 226 121 356q115 121 299 121q72 0 147 -42.5t122 -111.5q14 21 26 33q115 121 299 121q84 0 161 -37t136 -105l-215 -188q-38 43 -82 43q-16 0 -26 -1t-28 -6t-30 -17t-24.5 -32
t-18.5 -54t-6 -80v-168h160v2zM823 881v168q0 52 11 120q-64 70 -185 70q-16 0 -26 -1t-28 -6t-30 -17t-24.5 -32t-18.5 -54t-6 -80v-168h307z" />
    <glyph glyph-name="f_i.liga" unicode="fi" horiz-adv-x="1095" 
d="M516 883h488v-883h-269v643h-219v-643h-287v643h-147v240h147v166q0 226 121 356q115 121 299 121q84 0 161 -37t136 -105l-215 -188q-38 43 -82 43q-16 0 -26 -1t-28 -6t-30 -17t-24.5 -32t-18.5 -54t-6 -80v-166z" />
    <glyph glyph-name=".notdef" horiz-adv-x="512" 
 />
    <glyph glyph-name=".null" horiz-adv-x="0" 
 />
    <glyph glyph-name=".null" horiz-adv-x="0" 
 />
    <glyph glyph-name="nonmarkingreturn" unicode="&#xd;" horiz-adv-x="682" 
 />
    <glyph glyph-name="glyph6" horiz-adv-x="512" 
 />
    <glyph glyph-name="space" unicode=" " horiz-adv-x="614" 
 />
    <glyph glyph-name="exclam" unicode="!" horiz-adv-x="473" 
d="M109 406h262v1118h-262v-1118zM102 0h269v268h-269v-268z" />
    <glyph glyph-name="quotedbl" unicode="&#x22;" horiz-adv-x="1013" 
d="M145 1028h150l127 428h-289zM604 1028h150l127 428h-289z" />
    <glyph glyph-name="numbersign" unicode="#" horiz-adv-x="1607" 
d="M1505 905h-334l-102 -297h336v-190h-401l-146 -428h-201l152 428h-281l-149 -428h-186l151 428h-252v190h320l104 297h-321v191h389l151 430h183l-152 -430h283l151 430h184l-147 -430h268v-191zM877 608l104 297h-281l-104 -297h281z" />
    <glyph glyph-name="dollar" unicode="$" horiz-adv-x="1222" 
d="M745 1157v-295q177 -69 273 -174q112 -124 112 -280q0 -75 -30 -150t-84 -135q-109 -121 -271 -143v-187h-143v187q-88 7 -168 30q-196 62 -342 217l209 197q126 -137 301 -158v344h-2l-10 2q-134 34 -217 90q-176 116 -185 324q-9 173 105 293q65 68 150 101.5t159 39.5
v182h143v-190q64 -11 126 -35.5t97 -44.5t89 -55l47 -31l-150 -244l-51 33q-101 65 -158 82zM602 907v262q-69 -13 -102 -49q-27 -27 -25 -82q2 -46 31.5 -77t95.5 -54zM745 545v-273q49 19 74 61.5t25 74.5q0 73 -99 137z" />
    <glyph glyph-name="percent" unicode="%" 
d="M41 -53l139 -72l994 1608l-144 71zM326 844q-83 -9 -144.5 41t-70.5 133q-9 82 41 143t133 70q80 9 142 -40t71 -132q9 -82 -40.5 -144t-131.5 -71zM317 948q37 5 58.5 34t15.5 67q-4 42 -30 60.5t-64 12.5q-41 -3 -62.5 -27.5t-17.5 -66.5q5 -39 33 -61.5t67 -18.5z
M928 207q-83 -7 -144.5 42.5t-70.5 131.5q-8 84 41.5 145t132.5 68q82 9 144 -40.5t69 -131.5q9 -82 -41.5 -144t-130.5 -71zM918 311q36 4 58 33t19 66q-4 41 -30 60.5t-64 16.5q-41 -5 -63.5 -29.5t-18.5 -64.5q5 -38 33 -61.5t66 -20.5z" />
    <glyph glyph-name="ampersand" unicode="&#x26;" horiz-adv-x="1214" 
d="M883 0l-6 117q-36 -65 -120.5 -105.5t-162.5 -40.5q-100 0 -188.5 28t-156.5 81t-107.5 137.5t-39.5 190.5q0 227 187 366q-121 115 -121 291q0 172 122 281.5t300 109.5q179 0 301.5 -109t122.5 -282h-236q0 79 -56.5 117.5t-131.5 38.5t-131 -42t-56 -114
q0 -63 37.5 -110t100 -72t132.5 -37t148 -12v-213q-118 0 -280 34q-57 -21 -97.5 -48t-60.5 -50t-30.5 -54t-12.5 -49t-2 -46q0 -99 67.5 -154t188.5 -55q115 0 199 75t84 154v123h235v-551h-229z" />
    <glyph glyph-name="quotesingle" unicode="'" horiz-adv-x="247" 
d="M2 1028h129l148 428h-269z" />
    <glyph glyph-name="parenleft" unicode="(" horiz-adv-x="645" 
d="M315 1585l-4 -8q-108 -197 -164 -426q-55 -229 -55 -492q0 -264 55 -493q56 -229 164 -426l4 -8l228 75l-6 11q-109 222 -152 409q-21 93 -33 201q-10 117 -10 231q0 113 10 230q12 108 33 201q45 190 152 409l6 10z" />
    <glyph glyph-name="parenright" unicode=")" horiz-adv-x="645" 
d="M330 -268l4 8q108 197 164 426q55 229 55 493q0 263 -55 492q-56 229 -164 426l-4 8l-228 -76l7 -10q105 -215 151 -409q21 -93 33 -201q10 -117 10 -230q0 -114 -10 -231q-12 -108 -33 -201q-44 -191 -151 -409l-7 -11z" />
    <glyph glyph-name="asterisk" unicode="*" horiz-adv-x="1110" 
d="M987 1303l-227 -140l227 -139l-139 -166l-184 113v-219h-218v219l-184 -113l-139 166l227 139l-227 140l139 165l184 -112v280h218v-280l184 112z" />
    <glyph glyph-name="plus" unicode="+" horiz-adv-x="966" 
d="M602 596h272v-238h-272v-272h-237v272h-273v238h273v272h237v-272z" />
    <glyph glyph-name="comma" unicode="," horiz-adv-x="491" 
d="M100 -272h150l213 559l-291 -4z" />
    <glyph glyph-name="hyphen" unicode="-" horiz-adv-x="966" 
d="M133 596v-238h701v238h-701z" />
    <glyph glyph-name="period" unicode="." horiz-adv-x="452" 
d="M92 0h268v268h-268v-268z" />
    <glyph glyph-name="slash" unicode="/" horiz-adv-x="980" 
d="M72 -57l110 -49l707 1247l-111 51z" />
    <glyph glyph-name="zero" unicode="0" horiz-adv-x="1347" 
d="M674 1458q155 0 286.5 -99.5t208 -270.5t76.5 -373q0 -203 -76.5 -374t-208 -270.5t-286.5 -99.5t-286.5 99.5t-208.5 270.5t-77 374q0 151 45.5 288.5t122 237t182.5 158.5t222 59zM674 1171q-92 0 -176 -106q-49 -61 -78 -150q-31 -98 -31 -200q0 -106 31 -201
q27 -86 78 -152q83 -104 176 -104q56 0 101 32t75 72q51 66 78 152q30 91 30 201q0 106 -30 200q-29 89 -78 150q-79 106 -176 106z" />
    <glyph glyph-name="one" unicode="1" horiz-adv-x="942" 
d="M627 289h182v-289h-676v289h205v856h-205v289h494v-1145z" />
    <glyph glyph-name="two" unicode="2" horiz-adv-x="1236" 
d="M102 0l473 657q-32 7 -73 25q-73 30 -129 86q-56 53 -88 129q-33 84 -33 160q0 73 33 157q30 74 88 129q61 61 129 89q74 30 157 30q85 0 158 -30q68 -28 129 -89q58 -55 88 -129q33 -84 33 -157q0 -76 -33 -160q-9 -21 -127 -186t-232 -320l-114 -155h543v-236h-1002z
M496 1071q0 -61 44 -105t105 -44t104.5 43.5t43.5 105.5q0 60 -43.5 104t-104.5 44t-105 -44t-44 -104z" />
    <glyph glyph-name="three" unicode="3" horiz-adv-x="1085" 
d="M348 1038h-235q3 85 32 156q36 80 93 137q68 65 137 92q81 35 168 35t168 -35q69 -27 137 -92q55 -55 92 -137q33 -76 33 -166q0 -92 -33 -168q-37 -82 -92 -137q-2 -1 -5 -4t-5 -4q6 -6 10 -8q57 -60 92 -138q33 -76 33 -168t-33 -168q-35 -77 -92 -137
q-60 -57 -137 -92q-76 -33 -168 -33t-168 33q-77 35 -137 92q-59 62 -93 137q-29 70 -32 156h235q5 -77 61 -129.5t134 -52.5q82 0 138 56t56 138q0 79 -54 138t-130 59h-156v236h166q67 0 120.5 59t53.5 135q0 80 -56.5 137.5t-137.5 57.5q-78 0 -134 -54t-61 -131z" />
    <glyph glyph-name="four" unicode="4" 
d="M936 598h160v-231h-160v-367h-266v367h-527v264l428 803h365v-836zM670 1130l-275 -532h275v532z" />
    <glyph glyph-name="five" unicode="5" horiz-adv-x="1226" 
d="M477 1200l-63 -244q87 37 190 37q110 0 199 -41q91 -38 162 -108q69 -69 110 -162q39 -91 39 -199q0 -110 -39 -198q-43 -97 -110 -164q-72 -72 -162 -109q-96 -41 -199 -41q-105 0 -198 41q-93 38 -164 109q-66 70 -101 143l195 82q36 -63 100 -101t139 -38
q114 0 194.5 80.5t80.5 195.5q0 114 -80.5 194.5t-194.5 80.5q-71 0 -131.5 -33t-97.5 -90l-233 59l176 742h766v-236h-578z" />
    <glyph glyph-name="six" unicode="6" horiz-adv-x="1171" 
d="M899 1436l-293 -576q71 -6 148 -35q86 -36 147 -94q66 -63 100 -141q37 -81 37 -174q0 -94 -37 -172q-37 -85 -100 -142q-65 -62 -147 -96q-90 -35 -183 -35q-95 0 -182 35q-84 34 -149 96q-59 54 -101 142q-37 78 -37 172q0 93 37 174l432 846h328zM571 203q77 0 131 61
t54 148t-54 148t-131 61q-78 0 -132 -60.5t-54 -148.5t54 -148.5t132 -60.5z" />
    <glyph glyph-name="seven" unicode="7" horiz-adv-x="1249" 
d="M133 1436h1045l-746 -1434h-319l610 1147h-590v287z" />
    <glyph glyph-name="eight" unicode="8" horiz-adv-x="1173" 
d="M922 705q118 -121 118 -297q0 -173 -118 -297q-57 -60 -144 -101q-88 -39 -190 -39q-106 0 -191 39q-85 40 -143 101q-121 127 -121 297q0 173 121 297q26 26 37 34q-2 1 -5 4.5t-5 4.5q-109 121 -109 286q0 164 109 285q58 64 133 98q86 39 174 39t174 -39
q75 -34 133 -98q109 -121 109 -285q0 -165 -109 -286q-2 -1 -5 -4.5t-5 -4.5q18 -15 37 -34zM588 1221q-67 0 -114.5 -55t-47.5 -132t47.5 -131.5t114.5 -54.5q66 0 114 55t48 131t-48 131.5t-114 55.5zM588 207q72 0 123 59t51 142q0 84 -51 143t-123 59t-123 -59t-51 -143
q0 -83 51 -142t123 -59z" />
    <glyph glyph-name="nine" unicode="9" horiz-adv-x="1202" 
d="M272 -23l293 603q-80 6 -147 32q-82 34 -148 97t-100 141q-37 81 -37 172q0 93 37 174q34 78 100 141t148 97q84 34 182 34t182 -34q86 -36 150 -97q61 -58 100 -141q37 -81 37 -174q0 -91 -37 -172l-432 -873h-328zM600 1241q-78 0 -133 -62.5t-55 -150.5q0 -89 55 -151
t133 -62q79 0 133.5 62t54.5 151q0 88 -54.5 150.5t-133.5 62.5z" />
    <glyph glyph-name="colon" unicode=":" horiz-adv-x="432" 
d="M82 614h268v269h-268v-269zM82 98h268v269h-268v-269z" />
    <glyph glyph-name="semicolon" unicode=";" horiz-adv-x="526" 
d="M166 614h268v269h-268v-269zM94 -207h150l192 559l-270 -4z" />
    <glyph glyph-name="less" unicode="&#x3c;" horiz-adv-x="1122" 
d="M113 512l790 -389l105 211l-574 282l576 279l-103 213l-794 -385v-211z" />
    <glyph glyph-name="equal" unicode="=" horiz-adv-x="1048" 
d="M92 860v-237h864v237h-864zM92 436v-237h864v237h-864z" />
    <glyph glyph-name="greater" unicode="&#x3e;" horiz-adv-x="1122" 
d="M115 334l104 -211l789 389v211l-793 385l-102 -213l575 -279z" />
    <glyph glyph-name="question" unicode="?" 
d="M520 340h236v57q0 53 19.5 100.5t51 85t69.5 74.5t76 77t69.5 84.5t51 106t19.5 132.5q0 215 -127 350q-120 117 -317 117q-111 0 -209.5 -47t-168 -132t-93.5 -194l229 -49q20 89 91 137.5t151 48.5q104 0 156.5 -61.5t52.5 -169.5q0 -92 -36.5 -150.5t-111.5 -118.5
q-48 -38 -72.5 -59t-56 -57.5t-45.5 -71t-24.5 -86.5t-10.5 -117v-57zM756 0h-234v233h234v-233z" />
    <glyph glyph-name="at" unicode="@" horiz-adv-x="2260" 
d="M809 -262l-94 -205q-249 115 -400 334q-182 257 -182 573q0 199 78 387q77 180 215 318q140 140 317 213q186 80 387 80q203 0 392 -86q177 -80 315 -224q138 -143 214.5 -323t76.5 -365q0 -83 -22.5 -184t-69.5 -182q-80 -140 -209 -193q-117 -54 -244 -18
q-105 28 -172 104q-43 48 -63 117q-130 -111 -304 -111q-128 0 -236 62.5t-170.5 170t-62.5 234.5q0 195 137 331t332 136q175 0 304 -110l20 84h197v-717q0 -31 22 -53.5t55 -30.5q16 -4 37 -4q99 0 162 110q30 52 46 123t16 131q0 148 -64.5 290t-170 247.5t-248 170
t-290.5 64.5q-157 0 -300 -61t-246.5 -164.5t-164.5 -246.5t-61 -300q0 -242 142 -444q118 -171 309 -258zM1239 270q68 71 68 170q0 102 -68 170q-67 70 -162 70q-94 0 -164 -70q-67 -70 -67 -170q0 -97 67 -170q69 -69 164 -69q96 0 162 69z" />
    <glyph glyph-name="A" unicode="A" horiz-adv-x="1636" 
d="M1247 0l-125 266h-594l-135 -266h-321l731 1436h84l678 -1436h-318zM676 553h311l-149 319z" />
    <glyph glyph-name="B" unicode="B" horiz-adv-x="1132" 
d="M113 1434h391q173 0 296.5 -123.5t123.5 -296.5q0 -129 -74 -236q79 -61 124.5 -151t45.5 -193q0 -181 -127 -307.5t-307 -126.5h-473v1434zM367 866h125q63 0 114 47t51 119q0 71 -50.5 116.5t-114.5 45.5h-125v-328zM373 244h209q72 0 124 50t52 122t-52 123t-124 51
h-209v-346z" />
    <glyph glyph-name="C" unicode="C" horiz-adv-x="1484" 
d="M1335 1300l-184 -213q-82 53 -179 68t-187.5 -10.5t-165.5 -80t-120.5 -146t-45.5 -203.5q0 -98 34.5 -180.5t90.5 -138t130.5 -89.5t153 -40.5t159 15.5t146.5 72l185 -211q-209 -172 -475 -172q-151 0 -289 59t-237.5 158.5t-158.5 237.5t-59 289q0 202 100 373
t271 270.5t373 99.5q253 0 458 -158z" />
    <glyph glyph-name="D" unicode="D" horiz-adv-x="1388" 
d="M133 1436h406q145 0 278 -56q130 -56 227 -153q102 -102 154 -230q57 -129 57 -278q0 -152 -57 -281q-52 -128 -154 -227q-104 -104 -227 -154q-129 -57 -278 -57h-289v2h-117v1434zM420 287h119q178 0 304 126.5t126 305.5q0 117 -57.5 216t-156.5 156.5t-216 57.5h-119
v-862z" />
    <glyph glyph-name="E" unicode="E" horiz-adv-x="1222" 
d="M1090 1436v-287h-670v-264h553v-287h-553v-311h663v-287h-950v1436h957z" />
    <glyph glyph-name="F" unicode="F" horiz-adv-x="1171" 
d="M1069 1436v-287h-670v-264h553v-287h-553v-598h-286v1436h956z" />
    <glyph glyph-name="G" unicode="G" horiz-adv-x="1740" 
d="M987 598v287h621v-885h-287v143q-114 -91 -234 -129.5t-219 -38.5q-152 1 -289 60.5t-235 159t-155 237t-56 289.5q1 150 61 286.5t159.5 234.5t236.5 156t287 58h6q255 -3 456 -164l-206 -202q-110 76 -252 79h-4q-189 0 -322 -133q-135 -132 -135 -319
q-1 -91 32.5 -175t96.5 -149q134 -137 321 -137h7q185 0 319 131q93 90 123 211h-332z" />
    <glyph glyph-name="H" unicode="H" horiz-adv-x="1370" 
d="M950 885v549h287v-1434h-287v598h-530v-598h-287v1434h287v-549h530z" />
    <glyph glyph-name="I" unicode="I" horiz-adv-x="858" 
d="M725 1149h-152v-862h152v-287h-592v287h154v862h-154v287h592v-287z" />
    <glyph glyph-name="J" unicode="J" horiz-adv-x="1116" 
d="M434 1436h580v-963h-2v-2q0 -128 -63 -236.5t-171 -171.5t-235 -63q-195 0 -333 138t-138 333v2h286v-2q0 -75 54 -129q55 -55 131 -55q74 0 129 55q53 53 53 129v2h6v703h-303z" />
    <glyph glyph-name="K" unicode="K" horiz-adv-x="1372" 
d="M897 2l-367 655l-110 -112v-543h-287v1434h287v-463l420 463h387l-502 -562l514 -872h-342z" />
    <glyph glyph-name="L" unicode="L" horiz-adv-x="1087" 
d="M420 1436v-1149h534v-285h-821v1434h287z" />
    <glyph glyph-name="M" unicode="M" horiz-adv-x="1662" 
d="M1243 0h287v1436h-100l-599 -545l-600 545h-98v-1436h287v879l411 -375l412 375v-879z" />
    <glyph glyph-name="N" unicode="N" horiz-adv-x="1435" 
d="M1227 0h76v1436h-287v-803l-793 803h-90v-1436h287v838z" />
    <glyph glyph-name="O" unicode="O" horiz-adv-x="1712" 
d="M856 1462q151 0 288.5 -59t237 -158.5t158.5 -237t59 -288.5q0 -202 -99.5 -373t-270.5 -271t-373 -100t-373 100t-270.5 271t-99.5 373q0 151 59 288.5t158.5 237t237 158.5t288.5 59zM856 1167q-186 0 -317 -131t-131 -317t131 -317.5t317 -131.5t317.5 131.5
t131.5 317.5t-131.5 317t-317.5 131z" />
    <glyph glyph-name="P" unicode="P" horiz-adv-x="1116" 
d="M129 1436h465q178 0 304 -126.5t126 -305.5t-126 -305t-304 -126h-178v-573h-287v1436zM416 860h178q59 0 101 42t42 102t-42 102.5t-101 42.5h-178v-289z" />
    <glyph glyph-name="Q" unicode="Q" horiz-adv-x="1712" 
d="M559 -289l150 279q-169 34 -304.5 137.5t-213.5 259t-78 332.5q0 151 59 288.5t158.5 237t237 158.5t288.5 59t288.5 -59t237 -158.5t158.5 -237t59 -288.5q0 -258 -157.5 -458.5t-401.5 -262.5h324v-287h-805zM399 719q0 -191 133 -324t324 -133t324 133t133 324
q0 190 -133 323q-134 134 -324 134t-324 -134q-133 -133 -133 -323z" />
    <glyph glyph-name="R" unicode="R" horiz-adv-x="1198" 
d="M1116 0h-305l-268 575h-144v-573h-286v1436h540q178 0 304 -126.5t126 -305.5q0 -129 -69 -234.5t-183 -157.5zM653 1151h-254v-289h254q60 0 102 42t42 102t-42 102.5t-102 42.5z" />
    <glyph glyph-name="S" unicode="S" horiz-adv-x="1222" 
d="M600 606l-10 2q-134 34 -217 90q-176 116 -185 324q-9 173 105 293q71 74 166 107.5t168 33.5q74 0 138 -11.5t119.5 -36t88 -43t84.5 -52.5l47 -31l-150 -244l-51 33q-45 29 -66.5 41.5t-57.5 28.5t-71.5 22t-80.5 6q-21 0 -62 -14t-65 -39q-27 -27 -25 -82
q1 -55 43 -88.5t141 -58.5q8 -2 41 -13q208 -71 318 -190q112 -124 112 -281q0 -75 -30 -149.5t-84 -134.5q-63 -71 -148.5 -109.5t-181.5 -38.5q-137 0 -252 35q-196 62 -342 217l209 197q152 -162 385 -162q42 0 74.5 17t49.5 42t25.5 47.5t8.5 38.5q0 58 -62.5 110
t-175.5 91z" />
    <glyph glyph-name="T" unicode="T" horiz-adv-x="1288" 
d="M102 1436h1084v-287h-398v-1149h-286v1149h-400v287z" />
    <glyph glyph-name="U" unicode="U" horiz-adv-x="1316" 
d="M1212 530h2q0 -113 -44 -216t-118.5 -177t-177.5 -118t-215 -44q-113 0 -216 44t-177.5 118t-118.5 176.5t-45 214.5v908h287v-906q0 -110 80 -190q78 -78 190 -78q111 0 189 78q77 77 80 188h-2v908h286v-906z" />
    <glyph glyph-name="V" unicode="V" horiz-adv-x="1587" 
d="M838 0h-86l-650 1436h318l375 -815l372 815h318z" />
    <glyph glyph-name="W" unicode="W" horiz-adv-x="2199" 
d="M1749 1436h317l-657 -1436h-70l-239 526l-242 -526h-70l-655 1436h318l383 -807l127 241l-277 566h317l373 -795z" />
    <glyph glyph-name="X" unicode="X" horiz-adv-x="1495" 
d="M1434 1436l-510 -719l510 -717h-353l-333 469l-334 -469h-353l510 717l-510 719h353l334 -471l333 471h353z" />
    <glyph glyph-name="Y" unicode="Y" horiz-adv-x="1406" 
d="M997 1436h318l-467 -910v-526h-287v526l-469 910h318l295 -541z" />
    <glyph glyph-name="Z" unicode="Z" horiz-adv-x="1509" 
d="M113 0h1259v266h-749l794 1086v84h-1175v-269h663l-792 -1085v-82z" />
    <glyph glyph-name="bracketleft" unicode="[" horiz-adv-x="802" 
d="M164 -393h475v235h-240v1499h240v236h-475v-1970z" />
    <glyph glyph-name="bracketright" unicode="]" horiz-adv-x="802" 
d="M164 -158v-235h475v1970h-475v-236h239v-1499h-239z" />
    <glyph glyph-name="underscore" unicode="_" 
d="M96 238v-238h1049v238h-1049z" />
    <glyph glyph-name="grave" unicode="`" horiz-adv-x="710" 
d="M72 1757l444 -207l123 88l-332 287z" />
    <glyph glyph-name="a" unicode="a" horiz-adv-x="1132" 
d="M854 883h197v-883h-217v86q-130 -111 -304 -111q-128 0 -236 62.5t-170.5 170t-62.5 234.5q0 195 137 331t332 136q175 0 304 -110zM725 272q68 71 68 170q0 102 -68 170q-67 70 -162 70q-94 0 -164 -70q-67 -70 -67 -170q0 -97 67 -170q69 -69 164 -69q96 0 162 69z" />
    <glyph glyph-name="b" unicode="b" horiz-adv-x="1210" 
d="M344 1524v-744q64 63 149 98t179 35q127 0 234.5 -63t170 -171t62.5 -235q0 -128 -62.5 -236t-170 -170.5t-234.5 -62.5q-93 0 -178.5 35.5t-149.5 98.5v-109h-262v1524h262zM801 274q67 70 67 170q0 97 -67 170q-67 70 -162 70q-97 0 -164 -70q-67 -73 -67 -170
q0 -100 67 -170q66 -69 164 -69q96 0 162 69z" />
    <glyph glyph-name="c" unicode="c" horiz-adv-x="948" 
d="M866 817l-118 -209q-39 42 -94.5 59.5t-111 7.5t-104.5 -38.5t-79.5 -80.5t-30.5 -116q0 -57 28.5 -107.5t75.5 -81t101.5 -44t112.5 2.5t102 60l114 -204q-136 -91 -291 -91q-133 0 -245.5 62.5t-178 170.5t-65.5 236q0 127 65.5 234.5t178 170t245.5 62.5
q161 0 295 -94z" />
    <glyph glyph-name="d" unicode="d" horiz-adv-x="1189" 
d="M866 0v104q-64 -63 -148.5 -98t-178.5 -35q-127 0 -234.5 62.5t-170 170.5t-62.5 236q0 127 62.5 235t170 171t234.5 63q94 0 178.5 -35t148.5 -98v748h242v-1524h-242zM342 440q0 -99 68 -170q66 -69 161 -69q98 0 164 69q68 71 68 170q0 96 -68 170q-67 70 -164 70
q-94 0 -161 -70q-68 -74 -68 -170z" />
    <glyph glyph-name="e" unicode="e" horiz-adv-x="1081" 
d="M702 268l193 -129q-64 -76 -157 -120t-197 -44q-127 0 -235 63t-171 171t-63 235q0 128 63 236t171 170.5t235 62.5t235 -62.5t171 -170.5t63 -236q0 -40 -9 -84h-659q18 -51 51 -86q65 -71 158 -71q86 0 151 65zM338 516h424q-16 58 -55 100q-64 70 -156 70
q-91 0 -158 -70q-36 -42 -55 -100z" />
    <glyph glyph-name="f" unicode="f" horiz-adv-x="1028" 
d="M952 1405l-186 -162q-38 49 -96 49q-40 0 -70.5 -20.5t-46 -48t-24.5 -65t-11 -62t-2 -47.5v-166h264v-240h-264v-643h-246v643h-168v240h168v166q0 219 109 352q54 66 129.5 101.5t161.5 35.5q164 0 282 -133z" />
    <glyph glyph-name="g" unicode="g" horiz-adv-x="1101" 
d="M1024 793l-150 -50q103 -111 103 -256q0 -166 -127.5 -282.5t-308.5 -116.5q-43 0 -95 10q-36 -65 -51 -106q78 10 156 10q241 0 371 -80q67 -43 103 -107t36 -141q0 -161 -133 -247q-127 -80 -377 -80t-377 80q-133 86 -133 247q0 59 25 117q52 173 202 385
q-74 57 -116.5 138t-42.5 173q0 109 58 201t157.5 145.5t216.5 53.5q21 0 61 -4l422 80v-170zM541 657q-77 0 -131 -51.5t-54 -118.5q0 -72 56.5 -121t128.5 -49q78 0 132 51t54 119q0 72 -54.5 121t-131.5 49zM551 -420q133 0 195.5 22.5t62.5 71.5q0 45 -70 70t-188 25
q-119 0 -188.5 -26.5t-69.5 -68.5q0 -94 258 -94z" />
    <glyph glyph-name="h" unicode="h" horiz-adv-x="1157" 
d="M354 1524v-697q122 82 264 82q127 0 234.5 -63t170 -171t62.5 -235v-440h-270v440q0 97 -67 170q-67 70 -162 70q-97 0 -164 -70q-68 -74 -68 -170v-440h-272v1524h272z" />
    <glyph glyph-name="i" unicode="i" horiz-adv-x="428" 
d="M82 1149h264v287h-264v-287zM82 0h264v883h-264v-883z" />
    <glyph glyph-name="j" unicode="j" horiz-adv-x="559" 
d="M199 1145h266v287h-266v-287zM31 -641h94q148 0 245 113t97 286v1125h-266v-1125q0 -24 -3.5 -45.5t-13 -47t-31 -41t-53.5 -15.5h-69v-250z" />
    <glyph glyph-name="k" unicode="k" horiz-adv-x="1120" 
d="M1059 0h-336l-295 358l-59 -61v-297h-287v1524h287v-926l262 285h350l-358 -369z" />
    <glyph glyph-name="l" unicode="l" horiz-adv-x="425" 
d="M82 0h262v1524h-262v-1524z" />
    <glyph glyph-name="m" unicode="m" horiz-adv-x="1718" 
d="M317 883l39 -70q108 94 224 94q93 0 173.5 -46.5t137.5 -127.5q55 81 137 127.5t174 46.5q164 0 280.5 -137t116.5 -332v-438h-229v438q0 98 -55.5 169t-140.5 71q-82 0 -137 -68.5t-58 -156.5v-453h-229v438q0 98 -56.5 169t-140.5 71q-71 0 -119.5 -48t-68.5 -122v-508
h-246v883h198z" />
    <glyph glyph-name="n" unicode="n" horiz-adv-x="1097" 
d="M291 883l41 -78q117 102 252 102q117 0 216.5 -62.5t157.5 -170.5t58 -236v-438h-250v438q0 97 -61 168.5t-152 71.5t-152 -71.5t-61 -168.5v-438h-258v883h209z" />
    <glyph glyph-name="o" unicode="o" horiz-adv-x="1099" 
d="M549 909q134 0 246.5 -62.5t177.5 -170t65 -234.5q0 -195 -142.5 -331t-346.5 -136q-100 0 -190 36.5t-155.5 99t-104 149t-38.5 182.5q0 127 65 234.5t177.5 170t245.5 62.5zM715 270q65 71 65 174q0 100 -65 168q-69 72 -164 72q-97 0 -160 -72q-69 -66 -69 -170
q0 -103 69 -172q63 -69 160 -69q95 0 164 69z" />
    <glyph glyph-name="p" unicode="p" horiz-adv-x="1218" 
d="M324 883l18 -103q64 63 149 98t179 35q127 0 234.5 -63t170 -171t62.5 -235q0 -128 -62.5 -236t-170 -170.5t-234.5 -62.5q-94 0 -179 35t-149 99v-750h-240v1524h222zM866 444q0 98 -67 168q-66 72 -162 72q-98 0 -164 -72q-67 -70 -67 -168q0 -100 67 -170
q66 -69 164 -69q96 0 162 69q67 70 67 170z" />
    <glyph glyph-name="q" unicode="q" horiz-adv-x="1210" 
d="M887 -641v750q-134 -134 -326 -134q-195 0 -332 137t-137 332q0 127 62.5 235t170.5 171t236 63q190 0 326 -133l20 103h211v-1524h-231zM430 612q-68 -71 -68 -168q0 -99 68 -170q69 -69 164 -69q96 0 162 69q67 67 67 170q0 101 -67 168q-66 72 -162 72q-95 0 -164 -72
z" />
    <glyph glyph-name="r" unicode="r" horiz-adv-x="837" 
d="M281 883l36 -101q47 62 126.5 92.5t172.5 30.5q80 0 150 -24l-100 -228q-110 48 -208.5 -4.5t-119.5 -161.5v-487h-256v883h199z" />
    <glyph glyph-name="s" unicode="s" horiz-adv-x="831" 
d="M43 135l164 166q61 -70 139.5 -100.5t132 -13.5t53.5 71q0 24 -10 41.5t-31 30t-39 19.5t-49 16q-74 23 -119.5 42.5t-88.5 51t-62.5 76t-19.5 106.5q0 118 91.5 193t221.5 75q109 0 183 -23.5t169 -80.5l-119 -187q-63 45 -118 68t-93 23t-61.5 -18.5t-28.5 -53.5
q-2 -16 4.5 -29t17 -21.5t31.5 -17.5t38.5 -14.5t48 -14.5t49.5 -16q105 -31 173 -98.5t68 -173.5q0 -108 -96 -192.5t-229 -84.5q-260 0 -420 160z" />
    <glyph glyph-name="t" unicode="t" horiz-adv-x="804" 
d="M522 883h205v-240h-205v-643h-260v643h-184v240h184v327h260v-327z" />
    <glyph glyph-name="u" unicode="u" horiz-adv-x="1056" 
d="M991 883v-439q0 -126 -66 -235.5t-172.5 -171.5t-224.5 -62q-89 0 -173.5 37t-148 99.5t-102 150t-38.5 182.5v439h262v-432q0 -92 55 -160q65 -68 145 -68q82 0 144 68q57 67 57 160v432h262z" />
    <glyph glyph-name="v" unicode="v" horiz-adv-x="1079" 
d="M578 0h-76l-441 883h254l226 -453l223 453h254z" />
    <glyph glyph-name="w" unicode="w" horiz-adv-x="1527" 
d="M1212 883h254l-458 -883h-35l-209 397l-207 -397h-33l-463 883h254l226 -428l96 184l-127 244h254l225 -428z" />
    <glyph glyph-name="x" unicode="x" horiz-adv-x="1107" 
d="M1036 883l-323 -453l305 -430h-297l-168 236l-186 -236h-277l305 430l-323 453h297l184 -260l186 260h297z" />
    <glyph glyph-name="y" unicode="y" horiz-adv-x="1261" 
d="M115 -641l366 696l-430 828h295l291 -490l270 490h287l-793 -1524h-286z" />
    <glyph glyph-name="z" unicode="z" horiz-adv-x="1067" 
d="M113 0h813v225h-412l442 604v54h-831v-224h426l-438 -600v-59z" />
    <glyph glyph-name="braceleft" unicode="{" horiz-adv-x="772" 
d="M102 711v-193q53 0 87.5 -17t53 -39t27 -75.5t10 -92t1.5 -122.5v-18q0 -88 1 -121.5t6.5 -95t20.5 -100t41 -70.5q50 -61 112 -77t208 -16v189q-60 -2 -98 7t-58.5 28t-29.5 48.5t-10 69.5t0 91q1 48 1 75q0 65 -1 101.5t-5.5 85.5t-14.5 78.5t-27 62.5t-44 57t-64 45
q35 18 62 44.5t44 53.5t28 66.5t16.5 71.5t7 81t1 82.5t-1.5 89t-1 87.5q0 44 1.5 70t9.5 48.5t19.5 32.5t35.5 17.5t52.5 9t76.5 0.5v188q-161 1 -235 -29.5t-116 -113.5q-18 -39 -27 -97t-10 -100t-1 -125v-26v-21q0 -76 -1 -112t-10 -88.5t-27 -76t-53.5 -40.5t-87.5 -14
z" />
    <glyph glyph-name="bar" unicode="|" 
d="M551 -322h160v2180h-160v-2180z" />
    <glyph glyph-name="braceright" unicode="}" horiz-adv-x="782" 
d="M102 -137v-189q146 0 208 16t112 77q26 32 41 71t21 99t7 96.5t1 120.5v21q0 70 1 102.5t5.5 81.5t15.5 70.5t30.5 46.5t50.5 33.5t75 8.5v193q-52 -3 -87 14t-53 40t-27 75.5t-10 88t-1 110.5v24q0 97 -1 137.5t-10 104.5t-28 106q-42 83 -116 113.5t-235 29.5v-188
q48 1 76.5 -0.5t52.5 -9t35.5 -17.5t19.5 -32.5t9.5 -48.5t1.5 -70q0 -32 -1 -87.5t-1.5 -89t1 -82.5t7 -81t16.5 -71.5t28 -66.5t44 -53.5t62 -44.5q-37 -21 -64 -45t-44 -57t-27 -62.5t-14.5 -78.5t-5.5 -85.5t-1 -101.5q0 -27 1 -75q1 -51 0 -91t-10 -69.5t-29.5 -48.5
t-58.5 -28t-98 -7z" />
    <glyph glyph-name="cent" unicode="&#xa2;" horiz-adv-x="956" 
d="M731 471l119 -197q-117 -84 -262 -90v-184h-144v203q-149 40 -245.5 165t-96.5 285q0 159 96 284t246 167v219h144v-203q149 -6 266 -94l-123 -201q-58 64 -143 70v-492q78 6 143 68zM444 432v434q-30 -18 -55 -43q-70 -70 -70 -174t70 -174q25 -25 55 -43z" />
    <glyph glyph-name="sterling" unicode="&#xa3;" 
d="M500 236h573v-236h-938v236q122 0 190 57t68 199v20v20l-1 18v18l-3 16l-4 18l-5 16l-9 19h-219v117h135q-113 149 -113 321q0 177 117 279t293 102q110 0 202 -39.5t149.5 -118.5t57.5 -184h-235q0 68 -76 96q-75 28 -160 1q-87 -29 -107 -100q-5 -18 -5 -36
q0 -36 11.5 -71.5t20.5 -51.5t39 -58.5t37 -53.5q38 -57 51 -86h379v-117h-334q17 -70 17 -143q0 -60 -41.5 -144t-89.5 -114z" />
    <glyph glyph-name="yen" unicode="&#xa5;" horiz-adv-x="1345" 
d="M1251 1436l-358 -764h184v-144h-252v-2v-69h252v-144h-252v-313h-286v313h-252v144h252v69v2h-252v144h184l-360 764h317l254 -541l252 541h317z" />
    <glyph glyph-name="dieresis" unicode="&#xa8;" horiz-adv-x="937" 
d="M102 1548h269v269h-269v-269zM567 1548h269v269h-269v-269z" />
    <glyph glyph-name="macron" unicode="&#xaf;" horiz-adv-x="921" 
d="M94 1589h731v228h-731v-228z" />
    <glyph glyph-name="degree" unicode="&#xb0;" horiz-adv-x="593" 
d="M287 1513q-83 0 -139 56t-56 139t56 139t139 56q82 0 138 -56t56 -139t-56 -139t-138 -56zM289 1618q37 0 61.5 26t24.5 64q0 41 -24 63.5t-62 22.5q-41 0 -65.5 -22t-24.5 -64q0 -39 25.5 -64.5t64.5 -25.5z" />
    <glyph glyph-name="plusminus" unicode="&#xb1;" horiz-adv-x="966" 
d="M602 1016h272v-238h-272v-272h-237v272h-273v238h273v272h237v-272zM133 373v-238h701v238h-701z" />
    <glyph glyph-name="twosuperior" unicode="&#xb2;" horiz-adv-x="1236" 
d="M61 1006l261 360q-30 9 -41 14q-37 14 -70 47q-26 23 -49 70q-19 55 -19 88q0 35 19 86q19 46 49 72q32 32 70 49q46 16 88 16q43 0 86 -16q42 -18 69 -49q35 -30 49 -72q19 -43 19 -86q0 -42 -19 -88q-4 -11 -69 -101.5t-128 -175.5l-63 -85h299v-129h-551zM279 1593
q0 -34 23.5 -58t57.5 -24t57 24t23 58q0 33 -23.5 56.5t-56.5 23.5q-34 0 -57.5 -23.5t-23.5 -56.5z" />
    <glyph glyph-name="threesuperior" unicode="&#xb3;" horiz-adv-x="1085" 
d="M190 1579h-129q3 51 19 86q18 43 51 76q43 38 74 49q52 20 92 20q44 0 92 -20q33 -11 76 -49q33 -33 51 -76q19 -46 19 -92q0 -43 -19 -92q-21 -48 -51 -74q-1 -1 -1.5 -2t-1.5 -2t-3 -2l6 -4q33 -33 51 -74q19 -49 19 -92q0 -46 -19 -92q-18 -43 -51 -76t-76 -51
q-46 -19 -92 -19q-43 0 -92 19q-41 18 -74 51t-51 76q-16 35 -19 84h129q3 -42 34 -71.5t73 -29.5q45 0 77 32t32 77q0 43 -30.5 74.5t-72.5 31.5h-86v129h92q36 0 66.5 33t30.5 74q0 44 -32.5 76t-76.5 32q-43 0 -73.5 -29.5t-33.5 -72.5z" />
    <glyph glyph-name="acute" unicode="&#xb4;" 
d="M354 1638l123 -88l445 207l-236 168z" />
    <glyph glyph-name="periodcentered" unicode="&#xb7;" horiz-adv-x="454" 
d="M227 612q-51 0 -93 42.5t-42 93.5t42 93t93 42t93 -42t42 -93t-42 -93.5t-93 -42.5z" />
    <glyph glyph-name="cedilla" unicode="&#xb8;" horiz-adv-x="675" 
d="M172 92h184v-205q202 -59 189 -260q-8 -87 -62 -138.5t-122 -60t-137.5 14.5t-108.5 74l84 90q13 -11 38 -21t55 -13t54.5 18t30.5 67q4 40 -15.5 70.5t-50.5 45t-62.5 23.5t-54.5 11l-22 2v282z" />
    <glyph glyph-name="onesuperior" unicode="&#xb9;" horiz-adv-x="942" 
d="M332 1165h100v-157h-371v157h113v471h-113v158h271v-629z" />
    <glyph glyph-name="ordmasculine" unicode="&#xba;" horiz-adv-x="636" 
d="M330 1567q112 0 190 -75t78 -181q0 -107 -78 -182.5t-190 -75.5q-111 0 -190 75.5t-79 182.5q0 106 79.5 181t189.5 75zM420 1214q37 40 37 97q0 55 -37 92q-36 39 -88 39q-55 0 -88 -39q-39 -36 -39 -92q0 -58 39 -97q33 -36 88 -36q52 0 88 36z" />
    <glyph glyph-name="onehalf" unicode="&#xbd;" horiz-adv-x="1323" 
d="M332 1042h100v-157h-371v157h113v471h-113v158h271v-629zM72 -57l110 -49l965 1714l-111 51zM711 2l260 360q-26 7 -41 15q-37 14 -70 47q-26 23 -49 70q-18 52 -18 88q0 37 18 86q18 44 49 71q32 32 70 49q49 17 88 17q40 0 86 -17q43 -19 70 -49q35 -30 49 -71
q18 -40 18 -86q0 -44 -18 -88q-4 -11 -69 -102t-128 -176l-63 -85h299v-129h-551zM928 590q0 -34 24 -58t58 -24t57 24t23 58q0 33 -23.5 56.5t-56.5 23.5q-34 0 -58 -24t-24 -56z" />
    <glyph glyph-name="Agrave" unicode="&#xc0;" horiz-adv-x="1636" 
d="M506 1761l444 -207l123 88l-332 287zM1247 0l-125 266h-594l-135 -266h-321l731 1436h84l678 -1436h-318zM676 553h311l-149 319z" />
    <glyph glyph-name="Aacute" unicode="&#xc1;" horiz-adv-x="1636" 
d="M649 1642l123 -88l445 207l-236 168zM1247 0l-125 266h-594l-135 -266h-321l731 1436h84l678 -1436h-318zM676 553h311l-149 319z" />
    <glyph glyph-name="Acircumflex" unicode="&#xc2;" horiz-adv-x="1636" 
d="M788 1921h119l344 -201l-174 -168l-229 217l-230 -217l-174 168zM1247 0l-125 266h-594l-135 -266h-321l731 1436h84l678 -1436h-318zM676 553h311l-149 319z" />
    <glyph glyph-name="Atilde" unicode="&#xc3;" horiz-adv-x="1636" 
d="M420 1655l135 -86q79 94 170 94q86 0 152 -41q36 -22 55 -32t60 -22t83 -12q51 0 99 20.5t80.5 50t57.5 58.5t36 49l12 21l-121 100q-10 -11 -26.5 -27t-60 -42.5t-77.5 -26.5q-29 0 -84 35q-39 24 -65.5 37t-82 28t-114.5 15q-179 0 -309 -219zM1247 0l-125 266h-594
l-135 -266h-321l731 1436h84l678 -1436h-318zM676 553h311l-149 319z" />
    <glyph glyph-name="Adieresis" unicode="&#xc4;" horiz-adv-x="1636" 
d="M500 1552h268v269h-268v-269zM965 1552h268v269h-268v-269zM1247 0l-125 266h-594l-135 -266h-321l731 1436h84l678 -1436h-318zM676 553h311l-149 319z" />
    <glyph glyph-name="Aring" unicode="&#xc5;" horiz-adv-x="1636" 
d="M848 1528q-83 0 -139 55.5t-56 138.5t56 139t139 56q82 0 138 -56t56 -139t-56 -138.5t-138 -55.5zM850 1632q37 0 61.5 26t24.5 64q0 41 -24 63.5t-62 22.5q-41 0 -65.5 -22t-24.5 -64q0 -39 25.5 -64.5t64.5 -25.5zM1247 0l-125 266h-594l-135 -266h-321l731 1436h84
l678 -1436h-318zM676 553h311l-149 319z" />
    <glyph glyph-name="AE" unicode="&#xc6;" horiz-adv-x="1945" 
d="M1853 1149h-649v-264h533v-287h-533v-311h643v-285h-909v264h-387l-137 -268h-322l731 1438h1030v-287zM696 553h242v319h-80z" />
    <glyph glyph-name="Ccedilla" unicode="&#xc7;" horiz-adv-x="1484" 
d="M846 -29v-84q201 -59 188 -260q-8 -87 -62 -138.5t-122 -60t-137.5 14.5t-108.5 74l84 90q13 -11 38 -21t55 -13t54.5 18t30.5 67q4 40 -15.5 70.5t-50.5 45t-62 23.5t-54 11l-22 2v194q-232 70 -380.5 266t-148.5 445q0 202 100 373t271 270.5t373 99.5q253 0 458 -158
l-184 -213q-82 53 -179 68t-187.5 -10.5t-165.5 -80t-120.5 -146t-45.5 -203.5q0 -98 34.5 -180.5t90.5 -138t130.5 -89.5t153 -40.5t159 15.5t146.5 72l185 -211q-209 -172 -475 -172h-31z" />
    <glyph glyph-name="Egrave" unicode="&#xc8;" horiz-adv-x="1222" 
d="M270 1757l445 -207l123 88l-332 287zM1090 1436v-287h-670v-264h553v-287h-553v-311h663v-287h-950v1436h957z" />
    <glyph glyph-name="Eacute" unicode="&#xc9;" horiz-adv-x="1222" 
d="M414 1638l123 -88l444 207l-236 168zM1090 1436v-287h-670v-264h553v-287h-553v-311h663v-287h-950v1436h957z" />
    <glyph glyph-name="Ecircumflex" unicode="&#xca;" horiz-adv-x="1222" 
d="M553 1917h119l344 -201l-174 -168l-230 217l-229 -217l-174 168zM1090 1436v-287h-670v-264h553v-287h-553v-311h663v-287h-950v1436h957z" />
    <glyph glyph-name="Edieresis" unicode="&#xcb;" horiz-adv-x="1222" 
d="M264 1548h268v269h-268v-269zM729 1548h268v269h-268v-269zM1090 1436v-287h-670v-264h553v-287h-553v-311h663v-287h-950v1436h957z" />
    <glyph glyph-name="Igrave" unicode="&#xcc;" horiz-adv-x="858" 
d="M86 1755l444 -207l123 88l-331 287zM725 1149h-152v-862h152v-287h-592v287h154v862h-154v287h592v-287z" />
    <glyph glyph-name="Iacute" unicode="&#xcd;" horiz-adv-x="858" 
d="M229 1636l123 -88l445 207l-236 168zM725 1149h-152v-862h152v-287h-592v287h154v862h-154v287h592v-287z" />
    <glyph glyph-name="Icircumflex" unicode="&#xce;" horiz-adv-x="858" 
d="M369 1915h118l344 -201l-174 -168l-229 217l-229 -217l-174 168zM725 1149h-152v-862h152v-287h-592v287h154v862h-154v287h592v-287z" />
    <glyph glyph-name="Idieresis" unicode="&#xcf;" horiz-adv-x="858" 
d="M80 1546h268v269h-268v-269zM545 1546h268v269h-268v-269zM725 1149h-152v-862h152v-287h-592v287h154v862h-154v287h592v-287z" />
    <glyph glyph-name="Eth" unicode="&#xd0;" horiz-adv-x="1388" 
d="M133 1436h406q145 0 278 -56q130 -56 227 -153q102 -102 154 -230q57 -129 57 -278q0 -152 -57 -281q-52 -128 -154 -227q-104 -104 -227 -154q-129 -57 -278 -57h-289v2h-117v1434zM420 287h119q178 0 304 126.5t126 305.5q0 117 -57.5 216t-156.5 156.5t-216 57.5h-119
v-862zM6 825v-237h701v237h-701z" />
    <glyph glyph-name="Ntilde" unicode="&#xd1;" horiz-adv-x="1435" 
d="M289 1655l135 -86q79 94 170 94q85 0 151 -41q36 -21 55.5 -31.5t60.5 -22.5t83 -12q51 0 99 20.5t80.5 50t57.5 58.5t37 49l11 21l-121 100q-10 -11 -26.5 -27t-60 -42.5t-77.5 -26.5q-29 0 -84 35q-39 24 -65.5 37t-82 28t-114.5 15q-179 0 -309 -219zM1227 0h76v1436
h-287v-803l-793 803h-90v-1436h287v838z" />
    <glyph glyph-name="Ograve" unicode="&#xd2;" horiz-adv-x="1712" 
d="M514 1761l444 -207l123 88l-331 287zM856 1462q151 0 288.5 -59t237 -158.5t158.5 -237t59 -288.5q0 -202 -99.5 -373t-270.5 -271t-373 -100t-373 100t-270.5 271t-99.5 373q0 151 59 288.5t158.5 237t237 158.5t288.5 59zM856 1167q-186 0 -317 -131t-131 -317
t131 -317.5t317 -131.5t317.5 131.5t131.5 317.5t-131.5 317t-317.5 131z" />
    <glyph glyph-name="Oacute" unicode="&#xd3;" horiz-adv-x="1712" 
d="M657 1642l123 -88l445 207l-236 168zM856 1462q151 0 288.5 -59t237 -158.5t158.5 -237t59 -288.5q0 -202 -99.5 -373t-270.5 -271t-373 -100t-373 100t-270.5 271t-99.5 373q0 151 59 288.5t158.5 237t237 158.5t288.5 59zM856 1167q-186 0 -317 -131t-131 -317
t131 -317.5t317 -131.5t317.5 131.5t131.5 317.5t-131.5 317t-317.5 131z" />
    <glyph glyph-name="Ocircumflex" unicode="&#xd4;" horiz-adv-x="1712" 
d="M797 1921h118l345 -201l-175 -168l-229 217l-229 -217l-174 168zM856 1462q151 0 288.5 -59t237 -158.5t158.5 -237t59 -288.5q0 -202 -99.5 -373t-270.5 -271t-373 -100t-373 100t-270.5 271t-99.5 373q0 151 59 288.5t158.5 237t237 158.5t288.5 59zM856 1167
q-186 0 -317 -131t-131 -317t131 -317.5t317 -131.5t317.5 131.5t131.5 317.5t-131.5 317t-317.5 131z" />
    <glyph glyph-name="Otilde" unicode="&#xd5;" horiz-adv-x="1712" 
d="M428 1655l135 -86q79 94 170 94q86 0 152 -41q36 -22 55 -32t60 -22t83 -12q51 0 99 20.5t80.5 50t57.5 58.5t36 49l12 21l-121 100q-10 -11 -26.5 -27t-60 -42.5t-77.5 -26.5q-29 0 -84 35q-39 24 -65.5 37t-82 28t-114.5 15q-179 0 -309 -219zM856 1462
q151 0 288.5 -59t237 -158.5t158.5 -237t59 -288.5q0 -202 -99.5 -373t-270.5 -271t-373 -100t-373 100t-270.5 271t-99.5 373q0 151 59 288.5t158.5 237t237 158.5t288.5 59zM856 1167q-186 0 -317 -131t-131 -317t131 -317.5t317 -131.5t317.5 131.5t131.5 317.5
t-131.5 317t-317.5 131z" />
    <glyph glyph-name="Odieresis" unicode="&#xd6;" horiz-adv-x="1712" 
d="M508 1552h268v269h-268v-269zM973 1552h268v269h-268v-269zM856 1462q151 0 288.5 -59t237 -158.5t158.5 -237t59 -288.5q0 -202 -99.5 -373t-270.5 -271t-373 -100t-373 100t-270.5 271t-99.5 373q0 151 59 288.5t158.5 237t237 158.5t288.5 59zM856 1167
q-186 0 -317 -131t-131 -317t131 -317.5t317 -131.5t317.5 131.5t131.5 317.5t-131.5 317t-317.5 131z" />
    <glyph glyph-name="multiply" unicode="&#xd7;" horiz-adv-x="935" 
d="M483 309l-192 -192l-168 168l192 192l-192 193l168 168l192 -193l193 193l168 -168l-193 -193l193 -192l-168 -168z" />
    <glyph glyph-name="Oslash" unicode="&#xd8;" horiz-adv-x="1712" 
d="M1591 1352l-161 -162q169 -206 169 -475q0 -202 -99.5 -373t-270.5 -271t-373 -100q-264 0 -473 172l-162 -161l-98 98l162 162q-172 209 -172 473q0 151 59 288.5t158.5 237t237 158.5t288.5 59q268 0 475 -170l162 162zM487 444l641 639q-120 88 -272 88
q-191 0 -324 -133t-133 -323q0 -151 88 -271zM1225 987l-639 -641q120 -88 270 -88q191 0 324 133t133 324q0 152 -88 272z" />
    <glyph glyph-name="Ugrave" unicode="&#xd9;" horiz-adv-x="1316" 
d="M317 1761l445 -207l123 88l-332 287zM1212 530h2q0 -113 -44 -216t-118.5 -177t-177.5 -118t-215 -44q-113 0 -216 44t-177.5 118t-118.5 176.5t-45 214.5v908h287v-906q0 -110 80 -190q78 -78 190 -78q111 0 189 78q77 77 80 188h-2v908h286v-906z" />
    <glyph glyph-name="Uacute" unicode="&#xda;" horiz-adv-x="1316" 
d="M461 1642l123 -88l444 207l-235 168zM1212 530h2q0 -113 -44 -216t-118.5 -177t-177.5 -118t-215 -44q-113 0 -216 44t-177.5 118t-118.5 176.5t-45 214.5v908h287v-906q0 -110 80 -190q78 -78 190 -78q111 0 189 78q77 77 80 188h-2v908h286v-906z" />
    <glyph glyph-name="Ucircumflex" unicode="&#xdb;" horiz-adv-x="1316" 
d="M600 1921h119l344 -201l-174 -168l-230 217l-229 -217l-174 168zM1212 530h2q0 -113 -44 -216t-118.5 -177t-177.5 -118t-215 -44q-113 0 -216 44t-177.5 118t-118.5 176.5t-45 214.5v908h287v-906q0 -110 80 -190q78 -78 190 -78q111 0 189 78q77 77 80 188h-2v908h286
v-906z" />
    <glyph glyph-name="Udieresis" unicode="&#xdc;" horiz-adv-x="1316" 
d="M311 1552h269v269h-269v-269zM776 1552h268v269h-268v-269zM1212 530h2q0 -113 -44 -216t-118.5 -177t-177.5 -118t-215 -44q-113 0 -216 44t-177.5 118t-118.5 176.5t-45 214.5v908h287v-906q0 -110 80 -190q78 -78 190 -78q111 0 189 78q77 77 80 188h-2v908h286v-906z
" />
    <glyph glyph-name="Yacute" unicode="&#xdd;" horiz-adv-x="1406" 
d="M506 1642l123 -88l444 207l-235 168zM997 1436h318l-467 -910v-526h-287v526l-469 910h318l295 -541z" />
    <glyph glyph-name="Thorn" unicode="&#xde;" 
d="M420 1307h172q128 0 236 -63t170.5 -171t62.5 -235q0 -195 -137 -332t-332 -137h-172v-369h-236v1436h236v-129zM420 596h172q45 0 90.5 18.5t75.5 51.5q65 71 65 172q0 102 -65 170q-30 34 -75 52.5t-91 18.5h-172v-483z" />
    <glyph glyph-name="germandbls" unicode="&#xdf;" 
d="M567 229l-39 -198q3 -3 34 -15.5t94.5 -26.5t125.5 -14q169 0 265 87.5t100 269.5q2 99 -39 192.5t-117 159.5t-170 82q62 19 103.5 80.5t56 124.5t14.5 123q0 171 -107.5 269.5t-295.5 98.5q-85 0 -157.5 -27.5t-128 -80.5t-87 -137.5t-31.5 -190.5v-1026h222v1034
q0 215 182 215q51 0 90 -15.5t59.5 -40.5t30.5 -51t10 -52q0 -30 -1.5 -51t-8 -54.5t-21.5 -56t-39 -45t-64.5 -34t-94.5 -11.5v-197q83 0 188 -49q193 -90 185 -256q-3 -95 -56 -121.5t-168 -11.5q-34 4 -67.5 10.5t-50.5 10.5z" />
    <glyph glyph-name="agrave" unicode="&#xe0;" horiz-adv-x="1132" 
d="M274 1380l445 -206l123 88l-332 286zM854 883h197v-883h-217v86q-130 -111 -304 -111q-128 0 -236 62.5t-170.5 170t-62.5 234.5q0 195 137 331t332 136q175 0 304 -110zM725 272q68 71 68 170q0 102 -68 170q-67 70 -162 70q-94 0 -164 -70q-67 -70 -67 -170
q0 -97 67 -170q69 -69 164 -69q96 0 162 69z" />
    <glyph glyph-name="aacute" unicode="&#xe1;" horiz-adv-x="1132" 
d="M418 1262l123 -88l444 206l-235 168zM854 883h197v-883h-217v86q-130 -111 -304 -111q-128 0 -236 62.5t-170.5 170t-62.5 234.5q0 195 137 331t332 136q175 0 304 -110zM725 272q68 71 68 170q0 102 -68 170q-67 70 -162 70q-94 0 -164 -70q-67 -70 -67 -170
q0 -97 67 -170q69 -69 164 -69q96 0 162 69z" />
    <glyph glyph-name="acircumflex" unicode="&#xe2;" horiz-adv-x="1132" 
d="M557 1540h119l344 -201l-174 -168l-230 218l-229 -218l-174 168zM854 883h197v-883h-217v86q-130 -111 -304 -111q-128 0 -236 62.5t-170.5 170t-62.5 234.5q0 195 137 331t332 136q175 0 304 -110zM725 272q68 71 68 170q0 102 -68 170q-67 70 -162 70q-94 0 -164 -70
q-67 -70 -67 -170q0 -97 67 -170q69 -69 164 -69q96 0 162 69z" />
    <glyph glyph-name="atilde" unicode="&#xe3;" horiz-adv-x="1132" 
d="M188 1274l136 -86q79 94 170 94q85 0 151 -41q34 -20 55 -31t61.5 -22.5t82.5 -11.5q51 0 99 20.5t80 49.5t57 58t36 50l12 20l-120 101q-10 -11 -26.5 -27t-60 -43t-77.5 -27q-29 0 -84 35q-39 24 -65.5 37t-82 28t-114.5 15q-180 0 -310 -219zM854 883h197v-883h-217
v86q-130 -111 -304 -111q-128 0 -236 62.5t-170.5 170t-62.5 234.5q0 195 137 331t332 136q175 0 304 -110zM725 272q68 71 68 170q0 102 -68 170q-67 70 -162 70q-94 0 -164 -70q-67 -70 -67 -170q0 -97 67 -170q69 -69 164 -69q96 0 162 69z" />
    <glyph glyph-name="adieresis" unicode="&#xe4;" horiz-adv-x="1132" 
d="M268 1171h269v269h-269v-269zM733 1171h268v269h-268v-269zM854 883h197v-883h-217v86q-130 -111 -304 -111q-128 0 -236 62.5t-170.5 170t-62.5 234.5q0 195 137 331t332 136q175 0 304 -110zM725 272q68 71 68 170q0 102 -68 170q-67 70 -162 70q-94 0 -164 -70
q-67 -70 -67 -170q0 -97 67 -170q69 -69 164 -69q96 0 162 69z" />
    <glyph glyph-name="aring" unicode="&#xe5;" horiz-adv-x="1132" 
d="M616 1147q-83 0 -138.5 55.5t-55.5 138.5t55.5 139t138.5 56q82 0 138.5 -56t56.5 -139t-56.5 -138.5t-138.5 -55.5zM618 1251q37 0 62 26t25 64q0 41 -24.5 63.5t-62.5 22.5q-41 0 -65.5 -22t-24.5 -64q0 -39 25.5 -64.5t64.5 -25.5zM854 883h197v-883h-217v86
q-130 -111 -304 -111q-128 0 -236 62.5t-170.5 170t-62.5 234.5q0 195 137 331t332 136q175 0 304 -110zM725 272q68 71 68 170q0 102 -68 170q-67 70 -162 70q-94 0 -164 -70q-67 -70 -67 -170q0 -97 67 -170q69 -69 164 -69q96 0 162 69z" />
    <glyph glyph-name="ae" unicode="&#xe6;" horiz-adv-x="1859" 
d="M1071 883v-39q106 65 238 65q127 0 235 -62.5t171 -170.5t63 -236q0 -41 -9 -84h-659q18 -51 51 -86q65 -71 158 -71q86 0 151 65l193 -129q-64 -76 -157 -120t-197 -44q-115 0 -214 51.5t-165 141.5q-64 -91 -164 -143t-215 -52q-128 0 -236 63t-170.5 171t-62.5 235
q0 195 137 332t332 137q174 0 303 -110v86h217zM1106 512h424q-16 58 -55 100q-64 70 -156 70q-91 0 -158 -70q-36 -42 -55 -100zM745 268q68 71 68 170q0 102 -68 170q-67 70 -161 70t-164 -70q-68 -71 -68 -170q0 -96 68 -170q69 -69 164 -69t161 69z" />
    <glyph glyph-name="ccedilla" unicode="&#xe7;" horiz-adv-x="948" 
d="M748 270l114 -204q-133 -88 -284 -91v-88q201 -59 188 -260q-8 -87 -62 -138.5t-122 -60t-137.5 14.5t-108.5 74l84 90q13 -11 38 -21t55 -13t54.5 18t30.5 67q4 40 -15.5 70.5t-50.5 45t-62.5 23.5t-53.5 11l-23 2v198q-139 52 -225 170.5t-86 265.5q0 127 65.5 234.5
t178 170t245.5 62.5q161 0 295 -94l-118 -209q-39 42 -94.5 59.5t-111 7.5t-104.5 -38.5t-79.5 -80.5t-30.5 -116q0 -57 28.5 -107.5t75.5 -81t101.5 -44t112.5 2.5t102 60z" />
    <glyph glyph-name="egrave" unicode="&#xe8;" horiz-adv-x="1081" 
d="M203 1380l444 -206l123 88l-332 286zM702 268l193 -129q-64 -76 -157 -120t-197 -44q-127 0 -235 63t-171 171t-63 235q0 128 63 236t171 170.5t235 62.5t235 -62.5t171 -170.5t63 -236q0 -40 -9 -84h-659q18 -51 51 -86q65 -71 158 -71q86 0 151 65zM338 516h424
q-16 58 -55 100q-64 70 -156 70q-91 0 -158 -70q-36 -42 -55 -100z" />
    <glyph glyph-name="eacute" unicode="&#xe9;" horiz-adv-x="1081" 
d="M346 1262l123 -88l444 206l-235 168zM702 268l193 -129q-64 -76 -157 -120t-197 -44q-127 0 -235 63t-171 171t-63 235q0 128 63 236t171 170.5t235 62.5t235 -62.5t171 -170.5t63 -236q0 -40 -9 -84h-659q18 -51 51 -86q65 -71 158 -71q86 0 151 65zM338 516h424
q-16 58 -55 100q-64 70 -156 70q-91 0 -158 -70q-36 -42 -55 -100z" />
    <glyph glyph-name="ecircumflex" unicode="&#xea;" horiz-adv-x="1081" 
d="M485 1540h119l344 -201l-174 -168l-229 218l-230 -218l-174 168zM702 268l193 -129q-64 -76 -157 -120t-197 -44q-127 0 -235 63t-171 171t-63 235q0 128 63 236t171 170.5t235 62.5t235 -62.5t171 -170.5t63 -236q0 -40 -9 -84h-659q18 -51 51 -86q65 -71 158 -71
q86 0 151 65zM338 516h424q-16 58 -55 100q-64 70 -156 70q-91 0 -158 -70q-36 -42 -55 -100z" />
    <glyph glyph-name="edieresis" unicode="&#xeb;" horiz-adv-x="1081" 
d="M197 1171h268v269h-268v-269zM662 1171h268v269h-268v-269zM702 268l193 -129q-64 -76 -157 -120t-197 -44q-127 0 -235 63t-171 171t-63 235q0 128 63 236t171 170.5t235 62.5t235 -62.5t171 -170.5t63 -236q0 -40 -9 -84h-659q18 -51 51 -86q65 -71 158 -71
q86 0 151 65zM338 516h424q-16 58 -55 100q-64 70 -156 70q-91 0 -158 -70q-36 -42 -55 -100z" />
    <glyph glyph-name="igrave" unicode="&#xec;" horiz-adv-x="428" 
d="M-127 1380l444 -206l123 88l-331 286zM82 0h264v883h-264v-883z" />
    <glyph glyph-name="iacute" unicode="&#xed;" horiz-adv-x="428" 
d="M16 1262l123 -88l445 206l-236 168zM82 0h264v883h-264v-883z" />
    <glyph glyph-name="icircumflex" unicode="&#xee;" horiz-adv-x="428" 
d="M156 1540h118l344 -201l-174 -168l-229 218l-229 -218l-174 168zM82 0h264v883h-264v-883z" />
    <glyph glyph-name="idieresis" unicode="&#xef;" horiz-adv-x="428" 
d="M-133 1171h268v269h-268v-269zM332 1171h268v269h-268v-269zM82 0h264v883h-264v-883z" />
    <glyph glyph-name="eth" unicode="&#xf0;" 
d="M786 1288l-157 -90q195 -138 329 -321q121 -165 136 -383v-21q4 -36 4 -53q0 -94 -37 -172q-40 -85 -100 -142q-62 -59 -150 -96q-87 -35 -182 -35q-96 0 -183 35q-88 37 -147 96q-65 62 -100 142q-37 78 -37 172q0 93 37 174q34 78 100 141q56 56 147 94q80 35 183 35
q21 0 67 -4q-90 128 -233 242l-250 -141l-45 86l209 120q-70 50 -195 125l105 113q149 -81 252 -148l202 117zM629 211q87 0 148 61t61 148q0 88 -60.5 148.5t-148.5 60.5q-87 0 -148 -61t-61 -148q0 -86 61.5 -147.5t147.5 -61.5z" />
    <glyph glyph-name="ntilde" unicode="&#xf1;" horiz-adv-x="1097" 
d="M117 1274l135 -86q79 94 170 94q85 0 151 -41q34 -20 55 -31t61.5 -22.5t82.5 -11.5q51 0 99 20.5t80.5 49.5t57.5 58t37 50l11 20l-121 101q-10 -11 -26.5 -27t-60 -43t-77.5 -27q-29 0 -84 35q-39 24 -65.5 37t-82 28t-114.5 15q-179 0 -309 -219zM291 883l41 -78
q117 102 252 102q117 0 216.5 -62.5t157.5 -170.5t58 -236v-438h-250v438q0 97 -61 168.5t-152 71.5t-152 -71.5t-61 -168.5v-438h-258v883h209z" />
    <glyph glyph-name="ograve" unicode="&#xf2;" horiz-adv-x="1099" 
d="M203 1376l444 -207l123 88l-332 287zM549 909q134 0 246.5 -62.5t177.5 -170t65 -234.5q0 -195 -142.5 -331t-346.5 -136q-100 0 -190 36.5t-155.5 99t-104 149t-38.5 182.5q0 127 65 234.5t177.5 170t245.5 62.5zM715 270q65 71 65 174q0 100 -65 168q-69 72 -164 72
q-97 0 -160 -72q-69 -66 -69 -170q0 -103 69 -172q63 -69 160 -69q95 0 164 69z" />
    <glyph glyph-name="oacute" unicode="&#xf3;" horiz-adv-x="1099" 
d="M346 1257l123 -88l444 207l-235 168zM549 909q134 0 246.5 -62.5t177.5 -170t65 -234.5q0 -195 -142.5 -331t-346.5 -136q-100 0 -190 36.5t-155.5 99t-104 149t-38.5 182.5q0 127 65 234.5t177.5 170t245.5 62.5zM715 270q65 71 65 174q0 100 -65 168q-69 72 -164 72
q-97 0 -160 -72q-69 -66 -69 -170q0 -103 69 -172q63 -69 160 -69q95 0 164 69z" />
    <glyph glyph-name="ocircumflex" unicode="&#xf4;" horiz-adv-x="1099" 
d="M485 1536h119l344 -201l-174 -168l-229 217l-230 -217l-174 168zM549 909q134 0 246.5 -62.5t177.5 -170t65 -234.5q0 -195 -142.5 -331t-346.5 -136q-100 0 -190 36.5t-155.5 99t-104 149t-38.5 182.5q0 127 65 234.5t177.5 170t245.5 62.5zM715 270q65 71 65 174
q0 100 -65 168q-69 72 -164 72q-97 0 -160 -72q-69 -66 -69 -170q0 -103 69 -172q63 -69 160 -69q95 0 164 69z" />
    <glyph glyph-name="otilde" unicode="&#xf5;" horiz-adv-x="1099" 
d="M117 1270l135 -86q79 94 170 94q85 0 151 -41q36 -21 55.5 -31.5t60.5 -22.5t83 -12q51 0 99 20.5t80.5 49.5t57.5 58.5t37 50.5l11 20l-121 100q-10 -11 -26.5 -27t-60 -42.5t-77.5 -26.5q-29 0 -84 35q-39 24 -65.5 37t-82 28t-114.5 15q-179 0 -309 -219zM549 909
q134 0 246.5 -62.5t177.5 -170t65 -234.5q0 -195 -142.5 -331t-346.5 -136q-100 0 -190 36.5t-155.5 99t-104 149t-38.5 182.5q0 127 65 234.5t177.5 170t245.5 62.5zM715 270q65 71 65 174q0 100 -65 168q-69 72 -164 72q-97 0 -160 -72q-69 -66 -69 -170q0 -103 69 -172
q63 -69 160 -69q95 0 164 69z" />
    <glyph glyph-name="odieresis" unicode="&#xf6;" horiz-adv-x="1099" 
d="M197 1167h268v269h-268v-269zM662 1167h268v269h-268v-269zM549 909q134 0 246.5 -62.5t177.5 -170t65 -234.5q0 -195 -142.5 -331t-346.5 -136q-100 0 -190 36.5t-155.5 99t-104 149t-38.5 182.5q0 127 65 234.5t177.5 170t245.5 62.5zM715 270q65 71 65 174
q0 100 -65 168q-69 72 -164 72q-97 0 -160 -72q-69 -66 -69 -170q0 -103 69 -172q63 -69 160 -69q95 0 164 69z" />
    <glyph glyph-name="divide" unicode="&#xf7;" horiz-adv-x="1150" 
d="M457 741h239v240h-239v-240zM133 596v-238h885v238h-885zM457 -4h239v240h-239v-240z" />
    <glyph glyph-name="oslash" unicode="&#xf8;" horiz-adv-x="1099" 
d="M993 784l-63 -61q92 -126 92 -279q0 -195 -137 -332t-332 -137q-156 0 -279 93l-73 -74l-99 98l74 72q-90 123 -90 280q0 127 62.5 235t170 171t234.5 63q152 0 278 -92l74 72l99 -96zM360 348l308 307q-48 31 -105 31q-92 0 -155 -72q-66 -69 -66 -170q0 -52 18 -96z
M760 553l-314 -315q50 -35 117 -35q93 0 156 69q65 71 65 172q0 60 -24 109z" />
    <glyph glyph-name="ugrave" unicode="&#xf9;" horiz-adv-x="1056" 
d="M186 1376l445 -207l123 88l-332 287zM991 883v-439q0 -126 -66 -235.5t-172.5 -171.5t-224.5 -62q-89 0 -173.5 37t-148 99.5t-102 150t-38.5 182.5v439h262v-432q0 -92 55 -160q65 -68 145 -68q82 0 144 68q57 67 57 160v432h262z" />
    <glyph glyph-name="uacute" unicode="&#xfa;" horiz-adv-x="1056" 
d="M330 1257l123 -88l444 207l-235 168zM991 883v-439q0 -126 -66 -235.5t-172.5 -171.5t-224.5 -62q-89 0 -173.5 37t-148 99.5t-102 150t-38.5 182.5v439h262v-432q0 -92 55 -160q65 -68 145 -68q82 0 144 68q57 67 57 160v432h262z" />
    <glyph glyph-name="ucircumflex" unicode="&#xfb;" horiz-adv-x="1056" 
d="M469 1536h119l344 -201l-174 -168l-230 217l-229 -217l-174 168zM991 883v-439q0 -126 -66 -235.5t-172.5 -171.5t-224.5 -62q-89 0 -173.5 37t-148 99.5t-102 150t-38.5 182.5v439h262v-432q0 -92 55 -160q65 -68 145 -68q82 0 144 68q57 67 57 160v432h262z" />
    <glyph glyph-name="udieresis" unicode="&#xfc;" horiz-adv-x="1056" 
d="M180 1167h269v269h-269v-269zM645 1167h268v269h-268v-269zM991 883v-439q0 -126 -66 -235.5t-172.5 -171.5t-224.5 -62q-89 0 -173.5 37t-148 99.5t-102 150t-38.5 182.5v439h262v-432q0 -92 55 -160q65 -68 145 -68q82 0 144 68q57 67 57 160v432h262z" />
    <glyph glyph-name="yacute" unicode="&#xfd;" horiz-adv-x="1261" 
d="M467 1262l123 -88l444 206l-235 168zM115 -641l366 696l-430 828h295l291 -490l270 490h287l-793 -1524h-286z" />
    <glyph glyph-name="thorn" unicode="&#xfe;" 
d="M408 1473v-623q108 63 233 63q128 0 236 -63t170.5 -171t62.5 -235q0 -195 -137 -332t-332 -137q-124 0 -233 64v-301h-236v1735h236zM807 272q65 71 65 172q0 102 -65 170q-63 72 -156 72q-92 0 -155 -72q-66 -69 -66 -170q0 -100 66 -172q63 -69 155 -69q93 0 156 69z
" />
    <glyph glyph-name="ydieresis" unicode="&#xff;" horiz-adv-x="1261" 
d="M317 1171h269v269h-269v-269zM782 1171h269v269h-269v-269zM115 -641l366 696l-430 828h295l291 -490l270 490h287l-793 -1524h-286z" />
    <glyph glyph-name="Amacron" unicode="&#x100;" horiz-adv-x="1636" 
d="M481 1593h731v228h-731v-228zM1247 0l-125 266h-594l-135 -266h-321l731 1436h84l678 -1436h-318zM676 553h311l-149 319z" />
    <glyph glyph-name="amacron" unicode="&#x101;" horiz-adv-x="1132" 
d="M250 1212h731v228h-731v-228zM854 883h197v-883h-217v86q-130 -111 -304 -111q-128 0 -236 62.5t-170.5 170t-62.5 234.5q0 195 137 331t332 136q175 0 304 -110zM725 272q68 71 68 170q0 102 -68 170q-67 70 -162 70q-94 0 -164 -70q-67 -70 -67 -170q0 -97 67 -170
q69 -69 164 -69q96 0 162 69z" />
    <glyph glyph-name="Abreve" unicode="&#x102;" horiz-adv-x="1636" 
d="M973 1819h151q0 -114 -81 -192.5t-195 -78.5q-112 0 -194.5 79t-82.5 192h154q0 -64 30.5 -92.5t90.5 -28.5q64 0 95.5 28.5t31.5 92.5zM1247 0l-125 266h-594l-135 -266h-321l731 1436h84l678 -1436h-318zM676 553h311l-149 319z" />
    <glyph glyph-name="abreve" unicode="&#x103;" horiz-adv-x="1132" 
d="M741 1438h152q0 -113 -81 -192t-196 -79q-112 0 -194 79t-82 192h154q0 -64 30 -92.5t90 -28.5q64 0 95.5 28.5t31.5 92.5zM854 883h197v-883h-217v86q-130 -111 -304 -111q-128 0 -236 62.5t-170.5 170t-62.5 234.5q0 195 137 331t332 136q175 0 304 -110zM725 272
q68 71 68 170q0 102 -68 170q-67 70 -162 70q-94 0 -164 -70q-67 -70 -67 -170q0 -97 67 -170q69 -69 164 -69q96 0 162 69z" />
    <glyph glyph-name="Aogonek" unicode="&#x104;" horiz-adv-x="1636" 
d="M1565 0h-166q-6 -11 -16 -29.5t-32 -69.5t-34 -94t-10.5 -89t26.5 -70q44 -41 107 -50.5t151 7.5v-215q0 1 -21.5 -3t-65 -10t-85.5 -6q-134 0 -225.5 87.5t-91.5 217.5q0 52 12 101.5t33 87t38 63t37 48.5t21 24h4l-125 266h-594l-135 -266h-321l731 1436h84zM676 553
h311l-149 319z" />
    <glyph glyph-name="aogonek" unicode="&#x105;" horiz-adv-x="1132" 
d="M1051 0h-58q-6 -11 -16 -29.5t-31.5 -69.5t-33.5 -94t-10.5 -89t26.5 -70q44 -41 107 -50.5t151 7.5v-215q0 1 -21.5 -3t-65 -10t-85.5 -6q-134 0 -226 87.5t-92 217.5q0 52 12.5 101.5t33 87t38 63t37.5 48.5t21 24h-4v86q-130 -111 -304 -111q-128 0 -236 62.5
t-170.5 170t-62.5 234.5q0 195 137 331t332 136q175 0 304 -110l20 84h197v-883zM725 272q68 71 68 170q0 102 -68 170q-67 70 -162 70q-94 0 -164 -70q-67 -70 -67 -170q0 -97 67 -170q69 -69 164 -69q96 0 162 69z" />
    <glyph glyph-name="Cacute" unicode="&#x106;" horiz-adv-x="1484" 
d="M649 1642l123 -88l445 207l-236 168zM1335 1300l-184 -213q-82 53 -179 68t-187.5 -10.5t-165.5 -80t-120.5 -146t-45.5 -203.5q0 -98 34.5 -180.5t90.5 -138t130.5 -89.5t153 -40.5t159 15.5t146.5 72l185 -211q-209 -172 -475 -172q-151 0 -289 59t-237.5 158.5
t-158.5 237.5t-59 289q0 202 100 373t271 270.5t373 99.5q253 0 458 -158z" />
    <glyph glyph-name="cacute" unicode="&#x107;" horiz-adv-x="948" 
d="M315 1262l123 -88l445 206l-236 168zM866 817l-118 -209q-39 42 -94.5 59.5t-111 7.5t-104.5 -38.5t-79.5 -80.5t-30.5 -116q0 -57 28.5 -107.5t75.5 -81t101.5 -44t112.5 2.5t102 60l114 -204q-136 -91 -291 -91q-133 0 -245.5 62.5t-178 170.5t-65.5 236
q0 127 65.5 234.5t178 170t245.5 62.5q161 0 295 -94z" />
    <glyph glyph-name="Ccircumflex" unicode="&#x108;" horiz-adv-x="1484" 
d="M788 1921h119l344 -201l-174 -168l-229 217l-230 -217l-174 168zM1335 1300l-184 -213q-82 53 -179 68t-187.5 -10.5t-165.5 -80t-120.5 -146t-45.5 -203.5q0 -98 34.5 -180.5t90.5 -138t130.5 -89.5t153 -40.5t159 15.5t146.5 72l185 -211q-209 -172 -475 -172
q-151 0 -289 59t-237.5 158.5t-158.5 237.5t-59 289q0 202 100 373t271 270.5t373 99.5q253 0 458 -158z" />
    <glyph glyph-name="ccircumflex" unicode="&#x109;" horiz-adv-x="948" 
d="M455 1540h118l345 -201l-175 -168l-229 218l-229 -218l-174 168zM866 817l-118 -209q-39 42 -94.5 59.5t-111 7.5t-104.5 -38.5t-79.5 -80.5t-30.5 -116q0 -57 28.5 -107.5t75.5 -81t101.5 -44t112.5 2.5t102 60l114 -204q-136 -91 -291 -91q-133 0 -245.5 62.5
t-178 170.5t-65.5 236q0 127 65.5 234.5t178 170t245.5 62.5q161 0 295 -94z" />
    <glyph glyph-name="Cdotaccent" unicode="&#x10a;" horiz-adv-x="1484" 
d="M848 1581q-66 0 -109 43t-43 109t43 108.5t109 42.5q65 0 108 -42.5t43 -108.5t-43 -109t-108 -43zM1335 1300l-184 -213q-82 53 -179 68t-187.5 -10.5t-165.5 -80t-120.5 -146t-45.5 -203.5q0 -98 34.5 -180.5t90.5 -138t130.5 -89.5t153 -40.5t159 15.5t146.5 72
l185 -211q-209 -172 -475 -172q-151 0 -289 59t-237.5 158.5t-158.5 237.5t-59 289q0 202 100 373t271 270.5t373 99.5q253 0 458 -158z" />
    <glyph glyph-name="cdotaccent" unicode="&#x10b;" horiz-adv-x="948" 
d="M514 1200q-66 0 -109 43t-43 109t43 108.5t109 42.5q65 0 108.5 -42.5t43.5 -108.5t-43.5 -109t-108.5 -43zM866 817l-118 -209q-39 42 -94.5 59.5t-111 7.5t-104.5 -38.5t-79.5 -80.5t-30.5 -116q0 -57 28.5 -107.5t75.5 -81t101.5 -44t112.5 2.5t102 60l114 -204
q-136 -91 -291 -91q-133 0 -245.5 62.5t-178 170.5t-65.5 236q0 127 65.5 234.5t178 170t245.5 62.5q161 0 295 -94z" />
    <glyph glyph-name="Ccaron" unicode="&#x10c;" horiz-adv-x="1484" 
d="M1251 1753l-344 -201h-119l-344 201l174 168l230 -217l229 217zM1335 1300l-184 -213q-82 53 -179 68t-187.5 -10.5t-165.5 -80t-120.5 -146t-45.5 -203.5q0 -98 34.5 -180.5t90.5 -138t130.5 -89.5t153 -40.5t159 15.5t146.5 72l185 -211q-209 -172 -475 -172
q-151 0 -289 59t-237.5 158.5t-158.5 237.5t-59 289q0 202 100 373t271 270.5t373 99.5q253 0 458 -158z" />
    <glyph glyph-name="ccaron" unicode="&#x10d;" horiz-adv-x="948" 
d="M918 1372l-345 -201h-118l-344 201l174 168l229 -217l229 217zM866 817l-118 -209q-39 42 -94.5 59.5t-111 7.5t-104.5 -38.5t-79.5 -80.5t-30.5 -116q0 -57 28.5 -107.5t75.5 -81t101.5 -44t112.5 2.5t102 60l114 -204q-136 -91 -291 -91q-133 0 -245.5 62.5t-178 170.5
t-65.5 236q0 127 65.5 234.5t178 170t245.5 62.5q161 0 295 -94z" />
    <glyph glyph-name="Dcaron" unicode="&#x10e;" horiz-adv-x="1388" 
d="M979 1753l-344 -201h-119l-344 201l174 168l229 -217l230 217zM133 1436h406q145 0 278 -56q130 -56 227 -153q102 -102 154 -230q57 -129 57 -278q0 -152 -57 -281q-52 -128 -154 -227q-104 -104 -227 -154q-129 -57 -278 -57h-289v2h-117v1434zM420 287h119
q178 0 304 126.5t126 305.5q0 117 -57.5 216t-156.5 156.5t-216 57.5h-119v-862z" />
    <glyph glyph-name="dcaron" unicode="&#x10f;" horiz-adv-x="1476" 
d="M866 0v104q-64 -63 -148.5 -98t-178.5 -35q-127 0 -234.5 62.5t-170 170.5t-62.5 236q0 127 62.5 235t170 171t234.5 63q94 0 178.5 -35t148.5 -98v748h242v-1524h-242zM1159 1028h150l127 428h-289zM342 440q0 -99 68 -170q66 -69 161 -69q98 0 164 69q68 71 68 170
q0 96 -68 170q-67 70 -164 70q-94 0 -161 -70q-68 -74 -68 -170z" />
    <glyph glyph-name="Dcroat" unicode="&#x110;" horiz-adv-x="1388" 
d="M209 1593h731v228h-731v-228zM133 1436h406q145 0 278 -56q130 -56 227 -153q102 -102 154 -230q57 -129 57 -278q0 -152 -57 -281q-52 -128 -154 -227q-104 -104 -227 -154q-129 -57 -278 -57h-289v2h-117v1434zM420 287h119q178 0 304 126.5t126 305.5q0 117 -57.5 216
t-156.5 156.5t-216 57.5h-119v-862z" />
    <glyph glyph-name="dcroat" unicode="&#x111;" horiz-adv-x="1189" 
d="M616 1651h732v227h-732v-227zM866 0v104q-64 -63 -148.5 -98t-178.5 -35q-127 0 -234.5 62.5t-170 170.5t-62.5 236q0 127 62.5 235t170 171t234.5 63q94 0 178.5 -35t148.5 -98v748h242v-1524h-242zM342 440q0 -99 68 -170q66 -69 161 -69q98 0 164 69q68 71 68 170
q0 96 -68 170q-67 70 -164 70q-94 0 -161 -70q-68 -74 -68 -170z" />
    <glyph glyph-name="Emacron" unicode="&#x112;" horiz-adv-x="1222" 
d="M246 1589h731v228h-731v-228zM1090 1436v-287h-670v-264h553v-287h-553v-311h663v-287h-950v1436h957z" />
    <glyph glyph-name="emacron" unicode="&#x113;" horiz-adv-x="1081" 
d="M178 1212h731v228h-731v-228zM702 268l193 -129q-64 -76 -157 -120t-197 -44q-127 0 -235 63t-171 171t-63 235q0 128 63 236t171 170.5t235 62.5t235 -62.5t171 -170.5t63 -236q0 -40 -9 -84h-659q18 -51 51 -86q65 -71 158 -71q86 0 151 65zM338 516h424
q-16 58 -55 100q-64 70 -156 70q-91 0 -158 -70q-36 -42 -55 -100z" />
    <glyph glyph-name="Ebreve" unicode="&#x114;" horiz-adv-x="1222" 
d="M737 1815h152q0 -113 -81 -192t-196 -79q-112 0 -194 79t-82 192h153q0 -64 30.5 -92.5t90.5 -28.5q64 0 95.5 28.5t31.5 92.5zM1090 1436v-287h-670v-264h553v-287h-553v-311h663v-287h-950v1436h957z" />
    <glyph glyph-name="ebreve" unicode="&#x115;" horiz-adv-x="1081" 
d="M670 1438h151q0 -114 -81 -192.5t-195 -78.5q-112 0 -194.5 79t-82.5 192h154q0 -64 30.5 -92.5t90.5 -28.5q64 0 95.5 28.5t31.5 92.5zM702 268l193 -129q-64 -76 -157 -120t-197 -44q-127 0 -235 63t-171 171t-63 235q0 128 63 236t171 170.5t235 62.5t235 -62.5
t171 -170.5t63 -236q0 -40 -9 -84h-659q18 -51 51 -86q65 -71 158 -71q86 0 151 65zM338 516h424q-16 58 -55 100q-64 70 -156 70q-91 0 -158 -70q-36 -42 -55 -100z" />
    <glyph glyph-name="Edotaccent" unicode="&#x116;" horiz-adv-x="1222" 
d="M612 1577q-66 0 -108.5 43t-42.5 109t42.5 108.5t108.5 42.5q65 0 108.5 -42.5t43.5 -108.5t-43.5 -109t-108.5 -43zM1090 1436v-287h-670v-264h553v-287h-553v-311h663v-287h-950v1436h957z" />
    <glyph glyph-name="edotaccent" unicode="&#x117;" horiz-adv-x="1081" 
d="M545 1200q-66 0 -109 43t-43 109t43 108.5t109 42.5q65 0 108 -42.5t43 -108.5t-43 -109t-108 -43zM702 268l193 -129q-64 -76 -157 -120t-197 -44q-127 0 -235 63t-171 171t-63 235q0 128 63 236t171 170.5t235 62.5t235 -62.5t171 -170.5t63 -236q0 -40 -9 -84h-659
q18 -51 51 -86q65 -71 158 -71q86 0 151 65zM338 516h424q-16 58 -55 100q-64 70 -156 70q-91 0 -158 -70q-36 -42 -55 -100z" />
    <glyph glyph-name="Eogonek" unicode="&#x118;" horiz-adv-x="1222" 
d="M1083 0h-4q-6 -11 -16 -29.5t-31.5 -69.5t-33.5 -94t-10.5 -89t26.5 -70q44 -41 107 -50.5t151 7.5v-215q0 1 -21.5 -3t-65 -10t-85.5 -6q-134 0 -226 87.5t-92 217.5q0 52 12.5 101.5t33 87t38 63t37.5 48.5t21 24h-791v1436h957v-287h-670v-264h553v-287h-553v-311h663
v-287z" />
    <glyph glyph-name="eogonek" unicode="&#x119;" horiz-adv-x="1081" 
d="M831 -375v-215q0 1 -21.5 -3t-65 -9.5t-85.5 -5.5q-134 0 -225.5 87.5t-91.5 217.5q0 155 111 287q-164 33 -272.5 162t-108.5 298q0 128 63 236t171 170.5t235 62.5t235 -62.5t171 -170.5t63 -236q0 -40 -9 -84h-659q18 -51 51 -86q65 -71 158 -71q86 0 151 65l193 -129
q-107 -129 -277 -157q-18 -37 -33 -74.5t-29 -86.5t-10.5 -90t27.5 -63q44 -41 107 -50.5t151 7.5zM338 516h424q-16 58 -55 100q-64 70 -156 70q-91 0 -158 -70q-36 -42 -55 -100z" />
    <glyph glyph-name="Ecaron" unicode="&#x11a;" horiz-adv-x="1222" 
d="M1016 1749l-344 -201h-119l-344 201l174 168l229 -217l230 217zM1090 1436v-287h-670v-264h553v-287h-553v-311h663v-287h-950v1436h957z" />
    <glyph glyph-name="ecaron" unicode="&#x11b;" horiz-adv-x="1081" 
d="M948 1372l-344 -201h-119l-344 201l174 168l230 -217l229 217zM702 268l193 -129q-64 -76 -157 -120t-197 -44q-127 0 -235 63t-171 171t-63 235q0 128 63 236t171 170.5t235 62.5t235 -62.5t171 -170.5t63 -236q0 -40 -9 -84h-659q18 -51 51 -86q65 -71 158 -71
q86 0 151 65zM338 516h424q-16 58 -55 100q-64 70 -156 70q-91 0 -158 -70q-36 -42 -55 -100z" />
    <glyph glyph-name="Gcircumflex" unicode="&#x11c;" horiz-adv-x="1740" 
d="M819 1917h119l344 -201l-174 -168l-229 217l-230 -217l-174 168zM987 598v287h621v-885h-287v143q-114 -91 -234 -129.5t-219 -38.5q-152 1 -289 60.5t-235 159t-155 237t-56 289.5q1 150 61 286.5t159.5 234.5t236.5 156t287 58h6q255 -3 456 -164l-206 -202
q-110 76 -252 79h-4q-189 0 -322 -133q-135 -132 -135 -319q-1 -91 32.5 -175t96.5 -149q134 -137 321 -137h7q185 0 319 131q93 90 123 211h-332z" />
    <glyph glyph-name="gcircumflex" unicode="&#x11d;" horiz-adv-x="1101" 
d="M510 1540h119l344 -201l-174 -168l-230 218l-229 -218l-174 168zM1024 793l-150 -50q103 -111 103 -256q0 -166 -127.5 -282.5t-308.5 -116.5q-43 0 -95 10q-36 -65 -51 -106q78 10 156 10q241 0 371 -80q67 -43 103 -107t36 -141q0 -161 -133 -247q-127 -80 -377 -80
t-377 80q-133 86 -133 247q0 59 25 117q52 173 202 385q-74 57 -116.5 138t-42.5 173q0 109 58 201t157.5 145.5t216.5 53.5q21 0 61 -4l422 80v-170zM541 657q-77 0 -131 -51.5t-54 -118.5q0 -72 56.5 -121t128.5 -49q78 0 132 51t54 119q0 72 -54.5 121t-131.5 49z
M551 -420q133 0 195.5 22.5t62.5 71.5q0 45 -70 70t-188 25q-119 0 -188.5 -26.5t-69.5 -68.5q0 -94 258 -94z" />
    <glyph glyph-name="Gbreve" unicode="&#x11e;" horiz-adv-x="1740" 
d="M1004 1815h151q0 -114 -81 -192.5t-195 -78.5q-112 0 -194.5 79t-82.5 192h154q0 -64 30.5 -92.5t90.5 -28.5q64 0 95.5 28.5t31.5 92.5zM987 598v287h621v-885h-287v143q-114 -91 -234 -129.5t-219 -38.5q-152 1 -289 60.5t-235 159t-155 237t-56 289.5q1 150 61 286.5
t159.5 234.5t236.5 156t287 58h6q255 -3 456 -164l-206 -202q-110 76 -252 79h-4q-189 0 -322 -133q-135 -132 -135 -319q-1 -91 32.5 -175t96.5 -149q134 -137 321 -137h7q185 0 319 131q93 90 123 211h-332z" />
    <glyph glyph-name="gbreve" unicode="&#x11f;" horiz-adv-x="1101" 
d="M694 1438h152q0 -113 -81 -192t-196 -79q-112 0 -194 79t-82 192h153q0 -64 30.5 -92.5t90.5 -28.5q64 0 95.5 28.5t31.5 92.5zM1024 793l-150 -50q103 -111 103 -256q0 -166 -127.5 -282.5t-308.5 -116.5q-43 0 -95 10q-36 -65 -51 -106q78 10 156 10q241 0 371 -80
q67 -43 103 -107t36 -141q0 -161 -133 -247q-127 -80 -377 -80t-377 80q-133 86 -133 247q0 59 25 117q52 173 202 385q-74 57 -116.5 138t-42.5 173q0 109 58 201t157.5 145.5t216.5 53.5q21 0 61 -4l422 80v-170zM541 657q-77 0 -131 -51.5t-54 -118.5q0 -72 56.5 -121
t128.5 -49q78 0 132 51t54 119q0 72 -54.5 121t-131.5 49zM551 -420q133 0 195.5 22.5t62.5 71.5q0 45 -70 70t-188 25q-119 0 -188.5 -26.5t-69.5 -68.5q0 -94 258 -94z" />
    <glyph glyph-name="Gdotaccent" unicode="&#x120;" horiz-adv-x="1740" 
d="M879 1577q-66 0 -109 43t-43 109t43 108.5t109 42.5q65 0 108 -42.5t43 -108.5t-43 -109t-108 -43zM987 598v287h621v-885h-287v143q-114 -91 -234 -129.5t-219 -38.5q-152 1 -289 60.5t-235 159t-155 237t-56 289.5q1 150 61 286.5t159.5 234.5t236.5 156t287 58h6
q255 -3 456 -164l-206 -202q-110 76 -252 79h-4q-189 0 -322 -133q-135 -132 -135 -319q-1 -91 32.5 -175t96.5 -149q134 -137 321 -137h7q185 0 319 131q93 90 123 211h-332z" />
    <glyph glyph-name="gdotaccent" unicode="&#x121;" horiz-adv-x="1101" 
d="M569 1200q-66 0 -108.5 43t-42.5 109t42.5 108.5t108.5 42.5q65 0 108.5 -42.5t43.5 -108.5t-43.5 -109t-108.5 -43zM1024 793l-150 -50q103 -111 103 -256q0 -166 -127.5 -282.5t-308.5 -116.5q-43 0 -95 10q-36 -65 -51 -106q78 10 156 10q241 0 371 -80
q67 -43 103 -107t36 -141q0 -161 -133 -247q-127 -80 -377 -80t-377 80q-133 86 -133 247q0 59 25 117q52 173 202 385q-74 57 -116.5 138t-42.5 173q0 109 58 201t157.5 145.5t216.5 53.5q21 0 61 -4l422 80v-170zM541 657q-77 0 -131 -51.5t-54 -118.5q0 -72 56.5 -121
t128.5 -49q78 0 132 51t54 119q0 72 -54.5 121t-131.5 49zM551 -420q133 0 195.5 22.5t62.5 71.5q0 45 -70 70t-188 25q-119 0 -188.5 -26.5t-69.5 -68.5q0 -94 258 -94z" />
    <glyph glyph-name="Gcommaaccent" unicode="&#x122;" horiz-adv-x="1740" 
d="M987 598v287h621v-885h-287v143q-114 -91 -234 -129.5t-219 -38.5q-152 1 -289 60.5t-235 159t-155 237t-56 289.5q1 150 61 286.5t159.5 234.5t236.5 156t287 58h6q255 -3 456 -164l-206 -202q-110 76 -252 79h-4q-189 0 -322 -133q-135 -132 -135 -319
q-1 -91 32.5 -175t96.5 -149q134 -137 321 -137h7q185 0 319 131q93 90 123 211h-332zM662 -801h149l213 559l-291 -4z" />
    <glyph glyph-name="gcommaaccent" unicode="&#x123;" horiz-adv-x="1064" 
d="M631 1456h-150l-127 -428h289zM1024 793l-150 -50q103 -111 103 -256q0 -166 -127.5 -282.5t-308.5 -116.5q-43 0 -95 10q-36 -65 -51 -106q78 10 156 10q241 0 371 -80q67 -43 103 -107t36 -141q0 -161 -133 -247q-127 -80 -377 -80t-377 80q-133 86 -133 247
q0 59 25 117q52 173 202 385q-74 57 -116.5 138t-42.5 173q0 109 58 201t157.5 145.5t216.5 53.5q21 0 61 -4l422 80v-170zM541 657q-77 0 -131 -51.5t-54 -118.5q0 -72 56.5 -121t128.5 -49q78 0 132 51t54 119q0 72 -54.5 121t-131.5 49zM551 -420q133 0 195.5 22.5
t62.5 71.5q0 45 -70 70t-188 25q-119 0 -188.5 -26.5t-69.5 -68.5q0 -94 258 -94z" />
    <glyph glyph-name="Hcircumflex" unicode="&#x124;" horiz-adv-x="1370" 
d="M625 1917h118l344 -201l-174 -168l-229 217l-229 -217l-174 168zM950 885v549h287v-1434h-287v598h-530v-598h-287v1434h287v-549h530z" />
    <glyph glyph-name="hcircumflex" unicode="&#x125;" horiz-adv-x="1157" 
d="M162 1917h119l344 -201l-174 -168l-230 217l-229 -217l-174 168zM354 1524v-697q122 82 264 82q127 0 234.5 -63t170 -171t62.5 -235v-440h-270v440q0 97 -67 170q-67 70 -162 70q-97 0 -164 -70q-68 -74 -68 -170v-440h-272v1524h272z" />
    <glyph glyph-name="Hbar" unicode="&#x126;" horiz-adv-x="1564" 
d="M1452 1217v-140h-117v-1077h-286v598h-531v-598h-287v1077h-118v140h118v217h287v-217h531v217h286v-217h117zM1049 885v192h-531v-192h531z" />
    <glyph glyph-name="hbar" unicode="&#x127;" 
d="M416 1077v-250q122 82 264 82q127 0 234.5 -63t170 -171t62.5 -235v-440h-270v440q0 96 -68 170q-67 70 -162 70q-97 0 -164 -70q-67 -73 -67 -170v-440h-273v1077h-92v140h92v307h273v-307h278v-140h-278z" />
    <glyph glyph-name="Itilde" unicode="&#x128;" horiz-adv-x="858" 
d="M0 1649l135 -86q79 94 170 94q86 0 152 -41q36 -22 55 -32t60 -22t83 -12q51 0 99 20.5t80.5 50t57.5 58.5t36 49l12 21l-121 100q-10 -11 -26.5 -27t-60 -42.5t-77.5 -26.5q-29 0 -84 35q-39 24 -65.5 37t-82 28t-114.5 15q-179 0 -309 -219zM725 1149h-152v-862h152
v-287h-592v287h154v862h-154v287h592v-287z" />
    <glyph glyph-name="itilde" unicode="&#x129;" horiz-adv-x="428" 
d="M-213 1274l135 -86q79 94 170 94q86 0 152 -41q35 -21 55 -31t60.5 -22t82.5 -12q51 0 99 20.5t80.5 49.5t57.5 58t37 50l11 20l-121 101q-10 -11 -26.5 -27t-60 -43t-77.5 -27q-29 0 -84 35q-39 24 -65.5 37t-82 28t-114.5 15q-179 0 -309 -219zM82 0h264v883h-264v-883
z" />
    <glyph glyph-name="Imacron" unicode="&#x12a;" horiz-adv-x="858" 
d="M61 1587h732v228h-732v-228zM725 1149h-152v-862h152v-287h-592v287h154v862h-154v287h592v-287z" />
    <glyph glyph-name="imacron" unicode="&#x12b;" horiz-adv-x="428" 
d="M-152 1212h732v228h-732v-228zM82 0h264v883h-264v-883z" />
    <glyph glyph-name="Ibreve" unicode="&#x12c;" horiz-adv-x="858" 
d="M553 1812h152q0 -113 -81 -191.5t-196 -78.5q-112 0 -194 78.5t-82 191.5h153q0 -64 30 -92t91 -28q64 0 95.5 28t31.5 92zM725 1149h-152v-862h152v-287h-592v287h154v862h-154v287h592v-287z" />
    <glyph glyph-name="ibreve" unicode="&#x12d;" horiz-adv-x="428" 
d="M340 1438h152q0 -113 -81 -192t-196 -79q-112 0 -194 79t-82 192h153q0 -64 30.5 -92.5t90.5 -28.5q64 0 95.5 28.5t31.5 92.5zM82 0h264v883h-264v-883z" />
    <glyph glyph-name="Iogonek" unicode="&#x12e;" horiz-adv-x="858" 
d="M725 0h-127q-6 -11 -16 -29.5t-32 -69.5t-34 -94t-10.5 -89t26.5 -70q44 -41 107.5 -50.5t151.5 7.5v-215q0 1 -21.5 -3t-65.5 -10t-86 -6q-134 0 -225.5 87.5t-91.5 217.5q0 52 12 101.5t33 87t38 63t37 48.5t21 24h-309v287h154v862h-154v287h592v-287h-152v-862h152
v-287z" />
    <glyph glyph-name="iogonek" unicode="&#x12f;" horiz-adv-x="428" 
d="M215 1200q-66 0 -109 43t-43 109t43 108.5t109 42.5q65 0 108.5 -42.5t43.5 -108.5t-43.5 -109t-108.5 -43zM346 883v-883q-6 -11 -16 -29.5t-31.5 -69.5t-33.5 -94t-10.5 -89t26.5 -70q44 -41 107 -50.5t151 7.5v-215q0 1 -21.5 -3t-65 -10t-85.5 -6q-134 0 -226 87.5
t-92 217.5q0 52 12 101.5t33 87t38 63t37 48.5t21 24h-108v883h264z" />
    <glyph glyph-name="Idotaccent" unicode="&#x130;" horiz-adv-x="858" 
d="M428 1575q-66 0 -109 42.5t-43 108.5t43 109t109 43q65 0 108.5 -43t43.5 -109t-43.5 -108.5t-108.5 -42.5zM725 1149h-152v-862h152v-287h-592v287h154v862h-154v287h592v-287z" />
    <glyph glyph-name="dotlessi" unicode="&#x131;" horiz-adv-x="428" 
d="M82 0h264v883h-264v-883z" />
    <glyph glyph-name="IJ" unicode="&#x132;" horiz-adv-x="1974" 
d="M133 1149v287h592v-287h-152v-862h152v-287h-592v287h154v862h-154zM1292 1436h580v-963h-2v-2q0 -128 -63 -236.5t-171 -171.5t-235 -63q-195 0 -333 138t-138 333v2h287v-2q0 -76 53 -129q55 -55 131 -55q74 0 129 55q53 53 53 129v2h6v703h-303z" />
    <glyph glyph-name="ij" unicode="&#x133;" horiz-adv-x="843" 
d="M82 1149h264v287h-264v-287zM483 1145h267v287h-267v-287zM82 0h264v883h-264v-883zM315 -641h95q148 0 245 113t97 286v1125h-267v-1125q0 -149 -100 -149h-70v-250z" />
    <glyph glyph-name="Jcircumflex" unicode="&#x134;" horiz-adv-x="1116" 
d="M772 1917h119l344 -201l-174 -168l-230 217l-229 -217l-174 168zM434 1436h580v-963h-2v-2q0 -128 -63 -236.5t-171 -171.5t-235 -63q-195 0 -333 138t-138 333v2h286v-2q0 -75 54 -129q55 -55 131 -55q74 0 129 55q53 53 53 129v2h6v703h-303z" />
    <glyph glyph-name="jcircumflex" unicode="&#x135;" horiz-adv-x="600" 
d="M317 1364h119l344 -201l-174 -168l-229 217l-230 -217l-174 168zM82 -608h94q148 0 245 113t97 286v1092h-266v-1092q0 -149 -100 -149h-70v-250z" />
    <glyph glyph-name="Kcommaaccent" unicode="&#x136;" horiz-adv-x="1372" 
d="M897 2l-367 655l-110 -112v-543h-287v1434h287v-463l420 463h387l-502 -562l514 -872h-342zM397 -801h150l213 559l-291 -4z" />
    <glyph glyph-name="kcommaaccent" unicode="&#x137;" horiz-adv-x="1120" 
d="M1059 0h-336l-295 358l-59 -61v-297h-287v1524h287v-926l262 285h350l-358 -369zM315 -801h150l213 559l-291 -4z" />
    <glyph glyph-name="Lacute" unicode="&#x139;" horiz-adv-x="1087" 
d="M104 1642l123 -88l445 207l-236 168zM420 1436v-1149h534v-285h-821v1434h287z" />
    <glyph glyph-name="lacute" unicode="&#x13a;" horiz-adv-x="425" 
d="M12 1659l123 -88l445 207l-236 168zM82 0h262v1524h-262v-1524z" />
    <glyph glyph-name="Lcommaaccent" unicode="&#x13b;" horiz-adv-x="1087" 
d="M420 1436v-1149h534v-285h-821v1434h287zM326 -801h149l213 559l-291 -4z" />
    <glyph glyph-name="lcommaaccent" unicode="&#x13c;" horiz-adv-x="425" 
d="M82 0h262v1524h-262v-1524zM4 -801h150l213 559l-291 -4z" />
    <glyph glyph-name="Lcaron" unicode="&#x13d;" horiz-adv-x="1087" 
d="M420 1436v-1149h534v-285h-821v1434h287z" />
    <glyph glyph-name="lcaron" unicode="&#x13e;" horiz-adv-x="794" 
d="M92 0h262v1524h-262v-1524zM446 1028h150l127 428h-289z" />
    <glyph glyph-name="Ldot" unicode="&#x13f;" horiz-adv-x="1067" 
d="M420 1436v-1149h534v-285h-821v1434h287zM780 612q-51 0 -93 42.5t-42 93.5t42 93t93 42t93 -42t42 -93t-42 -93.5t-93 -42.5z" />
    <glyph glyph-name="ldot" unicode="&#x140;" horiz-adv-x="813" 
d="M82 0h262v1524h-262v-1524zM596 612q-51 0 -93 42.5t-42 93.5t42 93t93 42t93 -42t42 -93t-42 -93.5t-93 -42.5z" />
    <glyph glyph-name="Lslash" unicode="&#x141;" horiz-adv-x="1316" 
d="M528 287h514v-285h-800v518l-84 -71l-86 83l170 144v760h286v-516l250 213l86 -86l-336 -285v-475z" />
    <glyph glyph-name="lslash" unicode="&#x142;" horiz-adv-x="894" 
d="M803 1006l-244 -226v-780h-262v539l-98 -90l-86 83l184 170v822h262v-578l158 146z" />
    <glyph glyph-name="Nacute" unicode="&#x143;" horiz-adv-x="1435" 
d="M518 1642l123 -88l444 207l-235 168zM1227 0h76v1436h-287v-803l-793 803h-90v-1436h287v838z" />
    <glyph glyph-name="nacute" unicode="&#x144;" horiz-adv-x="1097" 
d="M346 1262l123 -88l444 206l-235 168zM291 883l41 -78q117 102 252 102q117 0 216.5 -62.5t157.5 -170.5t58 -236v-438h-250v438q0 97 -61 168.5t-152 71.5t-152 -71.5t-61 -168.5v-438h-258v883h209z" />
    <glyph glyph-name="Ncommaaccent" unicode="&#x145;" horiz-adv-x="1435" 
d="M1227 0h76v1436h-287v-803l-793 803h-90v-1436h287v838zM510 -801h149l213 559l-290 -4z" />
    <glyph glyph-name="ncommaaccent" unicode="&#x146;" horiz-adv-x="1097" 
d="M291 883l41 -78q117 102 252 102q117 0 216.5 -62.5t157.5 -170.5t58 -236v-438h-250v438q0 97 -61 168.5t-152 71.5t-152 -71.5t-61 -168.5v-438h-258v883h209zM340 -801h149l213 559l-290 -4z" />
    <glyph glyph-name="Ncaron" unicode="&#x147;" horiz-adv-x="1435" 
d="M1120 1753l-344 -201h-119l-344 201l174 168l230 -217l229 217zM1227 0h76v1436h-287v-803l-793 803h-90v-1436h287v838z" />
    <glyph glyph-name="ncaron" unicode="&#x148;" horiz-adv-x="1097" 
d="M948 1372l-344 -201h-119l-344 201l174 168l230 -217l229 217zM291 883l41 -78q117 102 252 102q117 0 216.5 -62.5t157.5 -170.5t58 -236v-438h-250v438q0 97 -61 168.5t-152 71.5t-152 -71.5t-61 -168.5v-438h-258v883h209z" />
    <glyph glyph-name="Eng" unicode="&#x14a;" horiz-adv-x="1351" 
d="M1016 1436h287v-1563q0 -237 -105 -350q-111 -117 -289 -117q-100 0 -186 53l131 219q26 -16 55 -16q69 0 103 37q23 23 32 58t9 96v272l-633 713v-838h-287v1436h90l793 -908v908z" />
    <glyph glyph-name="eng" unicode="&#x14b;" 
d="M311 907l21 -82q108 82 252 82q117 0 216.5 -62.5t157.5 -170.5t58 -236v-504q0 -237 -105 -350q-110 -116 -288 -116q-101 0 -187 53l131 219q26 -16 56 -16q69 0 102 36q23 23 32 58t9 96v524q0 100 -64 170q-61 70 -149 70q-89 0 -150 -70q-63 -69 -63 -170v-438h-258
v907h229z" />
    <glyph glyph-name="Omacron" unicode="&#x14c;" horiz-adv-x="1712" 
d="M489 1593h732v228h-732v-228zM856 1462q151 0 288.5 -59t237 -158.5t158.5 -237t59 -288.5q0 -202 -99.5 -373t-270.5 -271t-373 -100t-373 100t-270.5 271t-99.5 373q0 151 59 288.5t158.5 237t237 158.5t288.5 59zM856 1167q-186 0 -317 -131t-131 -317t131 -317.5
t317 -131.5t317.5 131.5t131.5 317.5t-131.5 317t-317.5 131z" />
    <glyph glyph-name="omacron" unicode="&#x14d;" horiz-adv-x="1099" 
d="M178 1208h731v228h-731v-228zM549 909q134 0 246.5 -62.5t177.5 -170t65 -234.5q0 -195 -142.5 -331t-346.5 -136q-100 0 -190 36.5t-155.5 99t-104 149t-38.5 182.5q0 127 65 234.5t177.5 170t245.5 62.5zM715 270q65 71 65 174q0 100 -65 168q-69 72 -164 72
q-97 0 -160 -72q-69 -66 -69 -170q0 -103 69 -172q63 -69 160 -69q95 0 164 69z" />
    <glyph glyph-name="Obreve" unicode="&#x14e;" horiz-adv-x="1712" 
d="M981 1819h152q0 -113 -81 -192t-196 -79q-112 0 -194 79t-82 192h153q0 -64 30.5 -92.5t90.5 -28.5q64 0 95.5 28.5t31.5 92.5zM856 1462q151 0 288.5 -59t237 -158.5t158.5 -237t59 -288.5q0 -202 -99.5 -373t-270.5 -271t-373 -100t-373 100t-270.5 271t-99.5 373
q0 151 59 288.5t158.5 237t237 158.5t288.5 59zM856 1167q-186 0 -317 -131t-131 -317t131 -317.5t317 -131.5t317.5 131.5t131.5 317.5t-131.5 317t-317.5 131z" />
    <glyph glyph-name="obreve" unicode="&#x14f;" horiz-adv-x="1099" 
d="M670 1434h151q0 -114 -81 -192.5t-195 -78.5q-112 0 -194.5 79t-82.5 192h154q0 -64 30.5 -92.5t90.5 -28.5q64 0 95.5 28.5t31.5 92.5zM549 909q134 0 246.5 -62.5t177.5 -170t65 -234.5q0 -195 -142.5 -331t-346.5 -136q-100 0 -190 36.5t-155.5 99t-104 149
t-38.5 182.5q0 127 65 234.5t177.5 170t245.5 62.5zM715 270q65 71 65 174q0 100 -65 168q-69 72 -164 72q-97 0 -160 -72q-69 -66 -69 -170q0 -103 69 -172q63 -69 160 -69q95 0 164 69z" />
    <glyph glyph-name="Ohungarumlaut" unicode="&#x150;" horiz-adv-x="1712" 
d="M506 1542h149l244 385h-289zM963 1542h149l244 385h-289zM856 1462q151 0 288.5 -59t237 -158.5t158.5 -237t59 -288.5q0 -202 -99.5 -373t-270.5 -271t-373 -100t-373 100t-270.5 271t-99.5 373q0 151 59 288.5t158.5 237t237 158.5t288.5 59zM856 1167
q-186 0 -317 -131t-131 -317t131 -317.5t317 -131.5t317.5 131.5t131.5 317.5t-131.5 317t-317.5 131z" />
    <glyph glyph-name="ohungarumlaut" unicode="&#x151;" horiz-adv-x="1099" 
d="M195 1157h149l244 385h-289zM651 1157h150l243 385h-288zM549 909q134 0 246.5 -62.5t177.5 -170t65 -234.5q0 -195 -142.5 -331t-346.5 -136q-100 0 -190 36.5t-155.5 99t-104 149t-38.5 182.5q0 127 65 234.5t177.5 170t245.5 62.5zM715 270q65 71 65 174
q0 100 -65 168q-69 72 -164 72q-97 0 -160 -72q-69 -66 -69 -170q0 -103 69 -172q63 -69 160 -69q95 0 164 69z" />
    <glyph glyph-name="OE" unicode="&#x152;" horiz-adv-x="2123" 
d="M2011 1149h-670v-264h553v-287h-553v-311h664v-285h-950q-106 -27 -199 -27q-202 0 -373 100t-270.5 271t-99.5 373q0 151 59 288.5t158.5 237t237 158.5t288.5 59q97 0 199 -26h956v-287zM1055 307v823q-91 46 -199 46q-190 0 -324 -134q-133 -133 -133 -323
q0 -191 133 -324t324 -133q104 0 199 45z" />
    <glyph glyph-name="oe" unicode="&#x153;" horiz-adv-x="1818" 
d="M1430 264l192 -129q-64 -76 -157 -120t-197 -44q-105 0 -199 45t-160 123q-66 -78 -159.5 -123t-200.5 -45q-127 0 -234.5 62.5t-170 170.5t-62.5 236q0 127 62.5 235t170 171t234.5 63q107 0 200.5 -45t157.5 -123q67 78 161.5 123t199.5 45q127 0 235 -62.5t171 -170.5
t63 -236q0 -45 -8 -84h-660q18 -51 51 -86q65 -71 158 -71q87 0 152 65zM715 268q65 71 65 172q0 102 -65 170q-63 72 -156 72t-156 -72q-65 -68 -65 -170q0 -101 65 -172q63 -69 156 -69t156 69zM1065 512h424q-16 58 -55 100q-64 70 -156 70q-91 0 -158 -70
q-36 -42 -55 -100z" />
    <glyph glyph-name="Racute" unicode="&#x154;" horiz-adv-x="1198" 
d="M354 1638l123 -88l445 207l-236 168zM1116 0h-305l-268 575h-144v-573h-286v1436h540q178 0 304 -126.5t126 -305.5q0 -129 -69 -234.5t-183 -157.5zM653 1151h-254v-289h254q60 0 102 42t42 102t-42 102.5t-102 42.5z" />
    <glyph glyph-name="racute" unicode="&#x155;" horiz-adv-x="837" 
d="M225 1262l123 -88l445 206l-236 168zM281 883l36 -101q47 62 126.5 92.5t172.5 30.5q80 0 150 -24l-100 -228q-110 48 -208.5 -4.5t-119.5 -161.5v-487h-256v883h199z" />
    <glyph glyph-name="Rcommaaccent" unicode="&#x156;" horiz-adv-x="1198" 
d="M1116 0h-305l-268 575h-144v-573h-286v1436h540q178 0 304 -126.5t126 -305.5q0 -129 -69 -234.5t-183 -157.5zM653 1151h-254v-289h254q60 0 102 42t42 102t-42 102.5t-102 42.5zM53 -801h150l213 559l-291 -4z" />
    <glyph glyph-name="rcommaaccent" unicode="&#x157;" horiz-adv-x="837" 
d="M281 883l36 -101q47 62 126.5 92.5t172.5 30.5q80 0 150 -24l-100 -228q-110 48 -208.5 -4.5t-119.5 -161.5v-487h-256v883h199zM-20 -801h151l213 559l-291 -4z" />
    <glyph glyph-name="Rcaron" unicode="&#x158;" horiz-adv-x="1198" 
d="M1020 1749l-344 -201h-119l-344 201l174 168l229 -217l230 217zM1116 0h-305l-268 575h-144v-573h-286v1436h540q178 0 304 -126.5t126 -305.5q0 -129 -69 -234.5t-183 -157.5zM653 1151h-254v-289h254q60 0 102 42t42 102t-42 102.5t-102 42.5z" />
    <glyph glyph-name="rcaron" unicode="&#x159;" horiz-adv-x="837" 
d="M827 1372l-344 -201h-118l-345 201l175 168l229 -217l229 217zM281 883l36 -101q47 62 126.5 92.5t172.5 30.5q80 0 150 -24l-100 -228q-110 48 -208.5 -4.5t-119.5 -161.5v-487h-256v883h199z" />
    <glyph glyph-name="Sacute" unicode="&#x15a;" horiz-adv-x="1222" 
d="M449 1642l122 -88l445 207l-236 168zM600 606l-10 2q-134 34 -217 90q-176 116 -185 324q-9 173 105 293q71 74 166 107.5t168 33.5q74 0 138 -11.5t119.5 -36t88 -43t84.5 -52.5l47 -31l-150 -244l-51 33q-45 29 -66.5 41.5t-57.5 28.5t-71.5 22t-80.5 6q-21 0 -62 -14
t-65 -39q-27 -27 -25 -82q1 -55 43 -88.5t141 -58.5q8 -2 41 -13q208 -71 318 -190q112 -124 112 -281q0 -75 -30 -149.5t-84 -134.5q-63 -71 -148.5 -109.5t-181.5 -38.5q-137 0 -252 35q-196 62 -342 217l209 197q152 -162 385 -162q42 0 74.5 17t49.5 42t25.5 47.5
t8.5 38.5q0 58 -62.5 110t-175.5 91z" />
    <glyph glyph-name="sacute" unicode="&#x15b;" horiz-adv-x="831" 
d="M217 1085l123 -88l444 207l-235 168zM43 135l164 166q61 -70 139.5 -100.5t132 -13.5t53.5 71q0 24 -10 41.5t-31 30t-39 19.5t-49 16q-74 23 -119.5 42.5t-88.5 51t-62.5 76t-19.5 106.5q0 118 91.5 193t221.5 75q109 0 183 -23.5t169 -80.5l-119 -187q-63 45 -118 68
t-93 23t-61.5 -18.5t-28.5 -53.5q-2 -16 4.5 -29t17 -21.5t31.5 -17.5t38.5 -14.5t48 -14.5t49.5 -16q105 -31 173 -98.5t68 -173.5q0 -108 -96 -192.5t-229 -84.5q-260 0 -420 160z" />
    <glyph glyph-name="Scircumflex" unicode="&#x15c;" horiz-adv-x="1222" 
d="M588 1921h119l344 -201l-174 -168l-230 217l-229 -217l-174 168zM600 606l-10 2q-134 34 -217 90q-176 116 -185 324q-9 173 105 293q71 74 166 107.5t168 33.5q74 0 138 -11.5t119.5 -36t88 -43t84.5 -52.5l47 -31l-150 -244l-51 33q-45 29 -66.5 41.5t-57.5 28.5
t-71.5 22t-80.5 6q-21 0 -62 -14t-65 -39q-27 -27 -25 -82q1 -55 43 -88.5t141 -58.5q8 -2 41 -13q208 -71 318 -190q112 -124 112 -281q0 -75 -30 -149.5t-84 -134.5q-63 -71 -148.5 -109.5t-181.5 -38.5q-137 0 -252 35q-196 62 -342 217l209 197q152 -162 385 -162
q42 0 74.5 17t49.5 42t25.5 47.5t8.5 38.5q0 58 -62.5 110t-175.5 91z" />
    <glyph glyph-name="scircumflex" unicode="&#x15d;" horiz-adv-x="831" 
d="M356 1364h119l344 -201l-174 -168l-229 217l-230 -217l-174 168zM43 135l164 166q61 -70 139.5 -100.5t132 -13.5t53.5 71q0 24 -10 41.5t-31 30t-39 19.5t-49 16q-74 23 -119.5 42.5t-88.5 51t-62.5 76t-19.5 106.5q0 118 91.5 193t221.5 75q109 0 183 -23.5t169 -80.5
l-119 -187q-63 45 -118 68t-93 23t-61.5 -18.5t-28.5 -53.5q-2 -16 4.5 -29t17 -21.5t31.5 -17.5t38.5 -14.5t48 -14.5t49.5 -16q105 -31 173 -98.5t68 -173.5q0 -108 -96 -192.5t-229 -84.5q-260 0 -420 160z" />
    <glyph glyph-name="Scedilla" unicode="&#x15e;" horiz-adv-x="1222" 
d="M954 1038l-51 33q-45 29 -66.5 41.5t-57.5 28.5t-71.5 22t-80.5 6q-21 0 -62 -14t-65 -39q-27 -27 -25 -82q1 -55 43 -88.5t141 -58.5q8 -2 41 -13q208 -71 318 -190q112 -124 112 -281q0 -75 -30 -149.5t-84 -134.5q-120 -136 -301 -148v-84q201 -59 188 -260
q-8 -87 -62 -138.5t-122 -60t-137.5 14.5t-108.5 74l84 90q13 -11 38 -21t55 -13t54.5 18t30.5 67q4 40 -15.5 70.5t-50.5 45t-62.5 23.5t-54.5 11l-22 2v174q-35 4 -96 22q-196 62 -342 217l209 197q152 -162 385 -162q42 0 74.5 17t49.5 42t25.5 47.5t8.5 38.5
q0 58 -62.5 110t-175.5 91l-6 2l-10 2q-134 34 -217 90q-176 116 -185 324q-9 173 105 293q71 74 166 107.5t168 33.5q74 0 138 -11.5t119.5 -36t88 -43t84.5 -52.5l47 -31z" />
    <glyph glyph-name="scedilla" unicode="&#x15f;" horiz-adv-x="831" 
d="M778 805l-119 -187q-63 45 -118 68t-93 23t-61.5 -18.5t-28.5 -53.5q-2 -16 4.5 -29t17 -21.5t31.5 -17.5t38.5 -14.5t48 -14.5t49.5 -16q105 -31 173 -98.5t68 -173.5q0 -105 -92.5 -189t-220.5 -88v-88q202 -59 189 -260q-8 -87 -62 -138.5t-122.5 -60t-138 14.5
t-108.5 74l84 90q13 -11 38.5 -21t55.5 -13t54.5 18t30.5 67q4 40 -15.5 70.5t-50.5 45t-62.5 23.5t-53.5 11l-23 2v186q-148 39 -248 139l164 166q61 -70 139.5 -100.5t132 -13.5t53.5 71q0 24 -10 41.5t-31 30t-39 19.5t-49 16q-74 23 -119.5 42.5t-88.5 51t-62.5 76
t-19.5 106.5q0 118 91.5 193t221.5 75q109 0 183 -23.5t169 -80.5z" />
    <glyph glyph-name="Scaron" unicode="&#x160;" horiz-adv-x="1222" 
d="M1051 1753l-344 -201h-119l-344 201l174 168l229 -217l230 217zM600 606l-10 2q-134 34 -217 90q-176 116 -185 324q-9 173 105 293q71 74 166 107.5t168 33.5q74 0 138 -11.5t119.5 -36t88 -43t84.5 -52.5l47 -31l-150 -244l-51 33q-45 29 -66.5 41.5t-57.5 28.5
t-71.5 22t-80.5 6q-21 0 -62 -14t-65 -39q-27 -27 -25 -82q1 -55 43 -88.5t141 -58.5q8 -2 41 -13q208 -71 318 -190q112 -124 112 -281q0 -75 -30 -149.5t-84 -134.5q-63 -71 -148.5 -109.5t-181.5 -38.5q-137 0 -252 35q-196 62 -342 217l209 197q152 -162 385 -162
q42 0 74.5 17t49.5 42t25.5 47.5t8.5 38.5q0 58 -62.5 110t-175.5 91z" />
    <glyph glyph-name="scaron" unicode="&#x161;" horiz-adv-x="831" 
d="M819 1196l-344 -201h-119l-344 201l174 168l230 -217l229 217zM43 135l164 166q61 -70 139.5 -100.5t132 -13.5t53.5 71q0 24 -10 41.5t-31 30t-39 19.5t-49 16q-74 23 -119.5 42.5t-88.5 51t-62.5 76t-19.5 106.5q0 118 91.5 193t221.5 75q109 0 183 -23.5t169 -80.5
l-119 -187q-63 45 -118 68t-93 23t-61.5 -18.5t-28.5 -53.5q-2 -16 4.5 -29t17 -21.5t31.5 -17.5t38.5 -14.5t48 -14.5t49.5 -16q105 -31 173 -98.5t68 -173.5q0 -108 -96 -192.5t-229 -84.5q-260 0 -420 160z" />
    <glyph glyph-name="Tcedilla" unicode="&#x162;" horiz-adv-x="1288" 
d="M788 0h-40v-113q201 -59 188 -260q-8 -87 -62 -138.5t-122 -60t-137.5 14.5t-108.5 74l84 90q13 -11 38 -21t55 -13t54.5 18t30.5 67q4 40 -15.5 70.5t-50.5 45t-62.5 23.5t-53.5 11l-23 2v190h-61v1149h-400v287h1084v-287h-398v-1149z" />
    <glyph glyph-name="tcedilla" unicode="&#x163;" horiz-adv-x="804" 
d="M522 0h-41v-113q202 -59 189 -260q-8 -87 -62 -138.5t-122 -60t-137.5 14.5t-108.5 74l84 90q13 -11 38 -21t55 -13t54.5 18t30.5 67q4 40 -15.5 70.5t-50.5 45t-62.5 23.5t-53.5 11l-23 2v190h-35v643h-184v240h184v327h260v-327h205v-240h-205v-643z" />
    <glyph glyph-name="Tcaron" unicode="&#x164;" horiz-adv-x="1288" 
d="M1047 1753l-345 -201h-118l-344 201l174 168l229 -217l229 217zM102 1436h1084v-287h-398v-1149h-286v1149h-400v287z" />
    <glyph glyph-name="tcaron" unicode="&#x165;" horiz-adv-x="804" 
d="M795 1528l-344 -201h-119l-344 201l174 168l229 -217l230 217zM522 883h205v-240h-205v-643h-260v643h-184v240h184v327h260v-327z" />
    <glyph glyph-name="Tbar" unicode="&#x166;" horiz-adv-x="1288" 
d="M276 1593h732v228h-732v-228zM102 1436h1084v-287h-398v-1149h-286v1149h-400v287z" />
    <glyph glyph-name="tbar" unicode="&#x167;" horiz-adv-x="804" 
d="M25 1368h731v227h-731v-227zM522 883h205v-240h-205v-643h-260v643h-184v240h184v327h260v-327z" />
    <glyph glyph-name="Utilde" unicode="&#x168;" horiz-adv-x="1316" 
d="M231 1655l136 -86q79 94 170 94q85 0 151 -41q36 -21 55.5 -31.5t60.5 -22.5t83 -12q51 0 99 20.5t80 50t57 58.5t37 49l11 21l-120 100q-10 -11 -26.5 -27t-60 -42.5t-77.5 -26.5q-29 0 -84 35q-39 24 -65.5 37t-82 28t-114.5 15q-180 0 -310 -219zM1212 530h2
q0 -113 -44 -216t-118.5 -177t-177.5 -118t-215 -44q-113 0 -216 44t-177.5 118t-118.5 176.5t-45 214.5v908h287v-906q0 -110 80 -190q78 -78 190 -78q111 0 189 78q77 77 80 188h-2v908h286v-906z" />
    <glyph glyph-name="utilde" unicode="&#x169;" horiz-adv-x="1056" 
d="M100 1270l136 -86q79 94 170 94q85 0 151 -41q36 -21 55.5 -31.5t60.5 -22.5t83 -12q51 0 99 20.5t80 49.5t57 58.5t36 50.5l12 20l-120 100q-10 -11 -26.5 -27t-60 -42.5t-77.5 -26.5q-29 0 -84 35q-39 24 -65.5 37t-82 28t-114.5 15q-180 0 -310 -219zM991 883v-439
q0 -126 -66 -235.5t-172.5 -171.5t-224.5 -62q-89 0 -173.5 37t-148 99.5t-102 150t-38.5 182.5v439h262v-432q0 -92 55 -160q65 -68 145 -68q82 0 144 68q57 67 57 160v432h262z" />
    <glyph glyph-name="Umacron" unicode="&#x16a;" horiz-adv-x="1316" 
d="M293 1593h731v228h-731v-228zM1212 530h2q0 -113 -44 -216t-118.5 -177t-177.5 -118t-215 -44q-113 0 -216 44t-177.5 118t-118.5 176.5t-45 214.5v908h287v-906q0 -110 80 -190q78 -78 190 -78q111 0 189 78q77 77 80 188h-2v908h286v-906z" />
    <glyph glyph-name="umacron" unicode="&#x16b;" horiz-adv-x="1056" 
d="M162 1208h731v228h-731v-228zM991 883v-439q0 -126 -66 -235.5t-172.5 -171.5t-224.5 -62q-89 0 -173.5 37t-148 99.5t-102 150t-38.5 182.5v439h262v-432q0 -92 55 -160q65 -68 145 -68q82 0 144 68q57 67 57 160v432h262z" />
    <glyph glyph-name="Ubreve" unicode="&#x16c;" horiz-adv-x="1316" 
d="M784 1819h152q0 -113 -81 -192t-196 -79q-112 0 -194 79t-82 192h154q0 -64 30 -92.5t90 -28.5q64 0 95.5 28.5t31.5 92.5zM1212 530h2q0 -113 -44 -216t-118.5 -177t-177.5 -118t-215 -44q-113 0 -216 44t-177.5 118t-118.5 176.5t-45 214.5v908h287v-906
q0 -110 80 -190q78 -78 190 -78q111 0 189 78q77 77 80 188h-2v908h286v-906z" />
    <glyph glyph-name="ubreve" unicode="&#x16d;" horiz-adv-x="1056" 
d="M653 1434h152q0 -113 -81 -192t-196 -79q-112 0 -194 79t-82 192h154q0 -64 30 -92.5t90 -28.5q64 0 95.5 28.5t31.5 92.5zM991 883v-439q0 -126 -66 -235.5t-172.5 -171.5t-224.5 -62q-89 0 -173.5 37t-148 99.5t-102 150t-38.5 182.5v439h262v-432q0 -92 55 -160
q65 -68 145 -68q82 0 144 68q57 67 57 160v432h262z" />
    <glyph glyph-name="Uring" unicode="&#x16e;" horiz-adv-x="1316" 
d="M659 1528q-83 0 -138.5 55.5t-55.5 138.5t55.5 139t138.5 56q82 0 138.5 -56t56.5 -139t-56.5 -138.5t-138.5 -55.5zM662 1632q37 0 61.5 26t24.5 64q0 41 -24 63.5t-62 22.5q-41 0 -66 -22t-25 -64q0 -38 25.5 -64t65.5 -26zM1212 530h2q0 -113 -44 -216t-118.5 -177
t-177.5 -118t-215 -44q-113 0 -216 44t-177.5 118t-118.5 176.5t-45 214.5v908h287v-906q0 -110 80 -190q78 -78 190 -78q111 0 189 78q77 77 80 188h-2v908h286v-906z" />
    <glyph glyph-name="uring" unicode="&#x16f;" horiz-adv-x="1056" 
d="M528 1143q-83 0 -138.5 55.5t-55.5 138.5t55.5 139t138.5 56q82 0 138.5 -56t56.5 -139t-56.5 -138.5t-138.5 -55.5zM530 1247q37 0 61.5 26t24.5 64q0 41 -24 63.5t-62 22.5q-41 0 -65.5 -22t-24.5 -64q0 -39 25.5 -64.5t64.5 -25.5zM991 883v-439q0 -126 -66 -235.5
t-172.5 -171.5t-224.5 -62q-89 0 -173.5 37t-148 99.5t-102 150t-38.5 182.5v439h262v-432q0 -92 55 -160q65 -68 145 -68q82 0 144 68q57 67 57 160v432h262z" />
    <glyph glyph-name="Uhungarumlaut" unicode="&#x170;" horiz-adv-x="1316" 
d="M309 1542h150l243 385h-288zM766 1542h149l244 385h-289zM1212 530h2q0 -113 -44 -216t-118.5 -177t-177.5 -118t-215 -44q-113 0 -216 44t-177.5 118t-118.5 176.5t-45 214.5v908h287v-906q0 -110 80 -190q78 -78 190 -78q111 0 189 78q77 77 80 188h-2v908h286v-906z
" />
    <glyph glyph-name="uhungarumlaut" unicode="&#x171;" horiz-adv-x="1056" 
d="M178 1157h150l243 385h-288zM635 1157h149l244 385h-289zM991 883v-439q0 -126 -66 -235.5t-172.5 -171.5t-224.5 -62q-89 0 -173.5 37t-148 99.5t-102 150t-38.5 182.5v439h262v-432q0 -92 55 -160q65 -68 145 -68q82 0 144 68q57 67 57 160v432h262z" />
    <glyph glyph-name="Uogonek" unicode="&#x172;" horiz-adv-x="1316" 
d="M1212 1436l2 -906q0 -141 -66 -262.5t-179.5 -198.5t-251.5 -92q-18 -34 -33.5 -70t-32.5 -89.5t-15 -99.5t28 -70q44 -41 107 -50.5t151 7.5v-215q0 1 -21.5 -3t-65 -10t-85.5 -6q-134 0 -226 87.5t-92 217.5q0 167 127 308q-195 36 -325.5 189t-131.5 355v908h287v-906
q0 -110 80 -190q78 -78 190 -78q111 0 189 78q77 77 80 188h-2v908h286z" />
    <glyph glyph-name="uogonek" unicode="&#x173;" horiz-adv-x="1056" 
d="M991 883v-439q0 -115 -55.5 -215.5t-147.5 -167.5q-29 -37 -55.5 -74.5t-55.5 -88.5t-43.5 -92.5t-11 -80t32.5 -57.5q81 -76 334 -12v-236l-27 -11q-27 -11 -89 -24.5t-132 -13.5q-134 0 -225.5 87.5t-91.5 217.5q0 160 121 299h-17q-89 0 -173.5 37t-148 99.5t-102 150
t-38.5 182.5v439h262v-432q0 -92 55 -160q65 -68 145 -68q82 0 144 68q57 67 57 160v432h262z" />
    <glyph glyph-name="Wcircumflex" unicode="&#x174;" horiz-adv-x="2199" 
d="M985 1917h119l344 -201l-174 -168l-230 217l-229 -217l-174 168zM1749 1436h317l-657 -1436h-70l-239 526l-242 -526h-70l-655 1436h318l383 -807l127 241l-277 566h317l373 -795z" />
    <glyph glyph-name="wcircumflex" unicode="&#x175;" horiz-adv-x="1527" 
d="M700 1540h119l344 -201l-174 -168l-229 218l-230 -218l-174 168zM1212 883h254l-458 -883h-35l-209 397l-207 -397h-33l-463 883h254l226 -428l96 184l-127 244h254l225 -428z" />
    <glyph glyph-name="Ycircumflex" unicode="&#x176;" horiz-adv-x="1406" 
d="M645 1921h119l344 -201l-174 -168l-229 217l-230 -217l-174 168zM997 1436h318l-467 -910v-526h-287v526l-469 910h318l295 -541z" />
    <glyph glyph-name="ycircumflex" unicode="&#x177;" horiz-adv-x="1261" 
d="M606 1540h119l344 -201l-174 -168l-229 218l-230 -218l-174 168zM115 -641l366 696l-430 828h295l291 -490l270 490h287l-793 -1524h-286z" />
    <glyph glyph-name="Ydieresis" unicode="&#x178;" horiz-adv-x="1406" 
d="M356 1552h269v269h-269v-269zM821 1552h269v269h-269v-269zM997 1436h318l-467 -910v-526h-287v526l-469 910h318l295 -541z" />
    <glyph glyph-name="Zacute" unicode="&#x179;" horiz-adv-x="1509" 
d="M598 1642l123 -88l444 207l-235 168zM113 0h1259v266h-749l794 1086v84h-1175v-269h663l-792 -1085v-82z" />
    <glyph glyph-name="zacute" unicode="&#x17a;" horiz-adv-x="1067" 
d="M315 1262l123 -88l445 206l-236 168zM113 0h813v225h-412l442 604v54h-831v-224h426l-438 -600v-59z" />
    <glyph glyph-name="Zdotaccent" unicode="&#x17b;" horiz-adv-x="1509" 
d="M797 1581q-66 0 -109 43t-43 109t43 108.5t109 42.5q65 0 108 -42.5t43 -108.5t-43 -109t-108 -43zM113 0h1259v266h-749l794 1086v84h-1175v-269h663l-792 -1085v-82z" />
    <glyph glyph-name="zdotaccent" unicode="&#x17c;" horiz-adv-x="1067" 
d="M514 1200q-66 0 -109 43t-43 109t43 108.5t109 42.5q65 0 108.5 -42.5t43.5 -108.5t-43.5 -109t-108.5 -43zM113 0h813v225h-412l442 604v54h-831v-224h426l-438 -600v-59z" />
    <glyph glyph-name="Zcaron" unicode="&#x17d;" horiz-adv-x="1509" 
d="M1200 1753l-344 -201h-119l-344 201l174 168l230 -217l229 217zM113 0h1259v266h-749l794 1086v84h-1175v-269h663l-792 -1085v-82z" />
    <glyph glyph-name="zcaron" unicode="&#x17e;" horiz-adv-x="1067" 
d="M918 1372l-345 -201h-118l-344 201l174 168l229 -217l229 217zM113 0h813v225h-412l442 604v54h-831v-224h426l-438 -600v-59z" />
    <glyph glyph-name="florin" unicode="&#x192;" horiz-adv-x="1302" 
d="M1210 1567l-186 -162q-38 49 -96 49q-40 0 -70.5 -20.5t-46 -48.5t-24.5 -65.5t-11 -62t-2 -47.5v-161h264v-244h-264v-805q0 -220 -108 -352q-54 -66 -129.5 -101.5t-161.5 -35.5q-165 0 -283 133l187 161q38 -49 96 -49q50 0 83.5 28.5t47 74t18 77.5t4.5 64v805h-168
v244h168v161q0 220 109 353q54 66 129.5 101.5t161.5 35.5q164 0 282 -133z" />
    <glyph glyph-name="Acaron" unicode="&#x1cd;" horiz-adv-x="1636" 
d="M1251 1753l-344 -201h-119l-344 201l174 168l230 -217l229 217zM1247 0l-125 266h-594l-135 -266h-321l731 1436h84l678 -1436h-318zM676 553h311l-149 319z" />
    <glyph glyph-name="acaron" unicode="&#x1ce;" horiz-adv-x="1132" 
d="M1020 1372l-344 -201h-119l-344 201l174 168l229 -217l230 217zM854 883h197v-883h-217v86q-130 -111 -304 -111q-128 0 -236 62.5t-170.5 170t-62.5 234.5q0 195 137 331t332 136q175 0 304 -110zM725 272q68 71 68 170q0 102 -68 170q-67 70 -162 70q-94 0 -164 -70
q-67 -70 -67 -170q0 -97 67 -170q69 -69 164 -69q96 0 162 69z" />
    <glyph glyph-name="Icaron" unicode="&#x1cf;" horiz-adv-x="858" 
d="M831 1747l-344 -201h-118l-344 201l174 168l229 -217l229 217zM725 1149h-152v-862h152v-287h-592v287h154v862h-154v287h592v-287z" />
    <glyph glyph-name="icaron" unicode="&#x1d0;" horiz-adv-x="428" 
d="M618 1372l-344 -201h-118l-344 201l174 168l229 -217l229 217zM82 0h264v883h-264v-883z" />
    <glyph glyph-name="Ocaron" unicode="&#x1d1;" horiz-adv-x="1712" 
d="M1260 1753l-345 -201h-118l-344 201l174 168l229 -217l229 217zM856 1462q151 0 288.5 -59t237 -158.5t158.5 -237t59 -288.5q0 -202 -99.5 -373t-270.5 -271t-373 -100t-373 100t-270.5 271t-99.5 373q0 151 59 288.5t158.5 237t237 158.5t288.5 59zM856 1167
q-186 0 -317 -131t-131 -317t131 -317.5t317 -131.5t317.5 131.5t131.5 317.5t-131.5 317t-317.5 131z" />
    <glyph glyph-name="ocaron" unicode="&#x1d2;" horiz-adv-x="1099" 
d="M948 1368l-344 -201h-119l-344 201l174 168l230 -217l229 217zM549 909q134 0 246.5 -62.5t177.5 -170t65 -234.5q0 -195 -142.5 -331t-346.5 -136q-100 0 -190 36.5t-155.5 99t-104 149t-38.5 182.5q0 127 65 234.5t177.5 170t245.5 62.5zM715 270q65 71 65 174
q0 100 -65 168q-69 72 -164 72q-97 0 -160 -72q-69 -66 -69 -170q0 -103 69 -172q63 -69 160 -69q95 0 164 69z" />
    <glyph glyph-name="Ucaron" unicode="&#x1d3;" horiz-adv-x="1316" 
d="M1063 1753l-344 -201h-119l-344 201l174 168l229 -217l230 217zM1212 530h2q0 -113 -44 -216t-118.5 -177t-177.5 -118t-215 -44q-113 0 -216 44t-177.5 118t-118.5 176.5t-45 214.5v908h287v-906q0 -110 80 -190q78 -78 190 -78q111 0 189 78q77 77 80 188h-2v908h286
v-906z" />
    <glyph glyph-name="ucaron" unicode="&#x1d4;" horiz-adv-x="1056" 
d="M932 1368l-344 -201h-119l-344 201l174 168l229 -217l230 217zM991 883v-439q0 -126 -66 -235.5t-172.5 -171.5t-224.5 -62q-89 0 -173.5 37t-148 99.5t-102 150t-38.5 182.5v439h262v-432q0 -92 55 -160q65 -68 145 -68q82 0 144 68q57 67 57 160v432h262z" />
    <glyph glyph-name="Udieresismacron" unicode="&#x1d5;" horiz-adv-x="1316" 
d="M272 1907h732v227h-732v-227zM270 1563h269v268h-269v-268zM735 1563h269v268h-269v-268zM1212 530h2q0 -113 -44 -216t-118.5 -177t-177.5 -118t-215 -44q-113 0 -216 44t-177.5 118t-118.5 176.5t-45 214.5v908h287v-906q0 -110 80 -190q78 -78 190 -78q111 0 189 78
q77 77 80 188h-2v908h286v-906z" />
    <glyph glyph-name="udieresismacron" unicode="&#x1d6;" horiz-adv-x="1056" 
d="M182 1495h731v227h-731v-227zM180 1090h269v268h-269v-268zM645 1090h268v268h-268v-268zM991 883v-439q0 -126 -66 -235.5t-172.5 -171.5t-224.5 -62q-89 0 -173.5 37t-148 99.5t-102 150t-38.5 182.5v439h262v-432q0 -92 55 -160q65 -68 145 -68q82 0 144 68
q57 67 57 160v432h262z" />
    <glyph glyph-name="AEacute" unicode="&#x1fc;" horiz-adv-x="1945" 
d="M907 1642l123 -88l445 207l-236 168zM1853 1149h-649v-264h533v-287h-533v-311h643v-285h-909v264h-387l-137 -268h-322l731 1438h1030v-287zM696 553h242v319h-80z" />
    <glyph glyph-name="aeacute" unicode="&#x1fd;" horiz-adv-x="1859" 
d="M969 1085l123 -88l444 207l-236 168zM1071 883v-39q106 65 238 65q127 0 235 -62.5t171 -170.5t63 -236q0 -41 -9 -84h-659q18 -51 51 -86q65 -71 158 -71q86 0 151 65l193 -129q-64 -76 -157 -120t-197 -44q-115 0 -214 51.5t-165 141.5q-64 -91 -164 -143t-215 -52
q-128 0 -236 63t-170.5 171t-62.5 235q0 195 137 332t332 137q174 0 303 -110v86h217zM1106 512h424q-16 58 -55 100q-64 70 -156 70q-91 0 -158 -70q-36 -42 -55 -100zM745 268q68 71 68 170q0 102 -68 170q-67 70 -161 70t-164 -70q-68 -71 -68 -170q0 -96 68 -170
q69 -69 164 -69t161 69z" />
    <glyph glyph-name="Oslashacute" unicode="&#x1fe;" horiz-adv-x="1712" 
d="M657 1638l123 -88l445 207l-236 168zM1591 1352l-161 -162q169 -206 169 -475q0 -202 -99.5 -373t-270.5 -271t-373 -100q-264 0 -473 172l-162 -161l-98 98l162 162q-172 209 -172 473q0 151 59 288.5t158.5 237t237 158.5t288.5 59q268 0 475 -170l162 162zM487 444
l641 639q-120 88 -272 88q-191 0 -324 -133t-133 -323q0 -151 88 -271zM1225 987l-639 -641q120 -88 270 -88q191 0 324 133t133 324q0 152 -88 272z" />
    <glyph glyph-name="oslashacute" unicode="&#x1ff;" horiz-adv-x="1099" 
d="M352 1085l123 -88l445 207l-236 168zM993 784l-63 -61q92 -126 92 -279q0 -195 -137 -332t-332 -137q-156 0 -279 93l-73 -74l-99 98l74 72q-90 123 -90 280q0 127 62.5 235t170 171t234.5 63q152 0 278 -92l74 72l99 -96zM360 348l308 307q-48 31 -105 31
q-92 0 -155 -72q-66 -69 -66 -170q0 -52 18 -96zM760 553l-314 -315q50 -35 117 -35q93 0 156 69q65 71 65 172q0 60 -24 109z" />
    <glyph glyph-name="Scommaaccent" unicode="&#x218;" horiz-adv-x="1222" 
d="M600 606l-10 2q-134 34 -217 90q-176 116 -185 324q-9 173 105 293q71 74 166 107.5t168 33.5q74 0 138 -11.5t119.5 -36t88 -43t84.5 -52.5l47 -31l-150 -244l-51 33q-45 29 -66.5 41.5t-57.5 28.5t-71.5 22t-80.5 6q-21 0 -62 -14t-65 -39q-27 -27 -25 -82
q1 -55 43 -88.5t141 -58.5q8 -2 41 -13q208 -71 318 -190q112 -124 112 -281q0 -75 -30 -149.5t-84 -134.5q-63 -71 -148.5 -109.5t-181.5 -38.5q-137 0 -252 35q-196 62 -342 217l209 197q152 -162 385 -162q42 0 74.5 17t49.5 42t25.5 47.5t8.5 38.5q0 58 -62.5 110
t-175.5 91zM403 -801h150l213 559l-291 -4z" />
    <glyph glyph-name="scommaaccent" unicode="&#x219;" horiz-adv-x="831" 
d="M43 135l164 166q61 -70 139.5 -100.5t132 -13.5t53.5 71q0 24 -10 41.5t-31 30t-39 19.5t-49 16q-74 23 -119.5 42.5t-88.5 51t-62.5 76t-19.5 106.5q0 118 91.5 193t221.5 75q109 0 183 -23.5t169 -80.5l-119 -187q-63 45 -118 68t-93 23t-61.5 -18.5t-28.5 -53.5
q-2 -16 4.5 -29t17 -21.5t31.5 -17.5t38.5 -14.5t48 -14.5t49.5 -16q105 -31 173 -98.5t68 -173.5q0 -108 -96 -192.5t-229 -84.5q-260 0 -420 160zM164 -801h149l213 559l-290 -4z" />
    <glyph glyph-name="uni021A" unicode="&#x21a;" horiz-adv-x="1288" 
d="M102 1436h1084v-287h-398v-1149h-286v1149h-400v287zM436 -801h150l213 559l-291 -4z" />
    <glyph glyph-name="uni021B" unicode="&#x21b;" horiz-adv-x="804" 
d="M522 883h205v-240h-205v-643h-260v643h-184v240h184v327h260v-327zM170 -801h149l213 559l-290 -4z" />
    <glyph glyph-name="dotlessj" unicode="&#x237;" horiz-adv-x="600" 
d="M82 -608h94q148 0 245 113t97 286v1092h-266v-1092q0 -149 -100 -149h-70v-250z" />
    <glyph glyph-name="circumflex" unicode="&#x2c6;" 
d="M557 1917h119l344 -201l-174 -168l-230 217l-229 -217l-174 168z" />
    <glyph glyph-name="caron" unicode="&#x2c7;" horiz-adv-x="1232" 
d="M1020 1749l-344 -201h-119l-344 201l174 168l229 -217l230 217z" />
    <glyph glyph-name="breve" unicode="&#x2d8;" 
d="M739 1815h152q0 -113 -81 -192t-196 -79q-112 0 -194 79t-82 192h154q0 -64 30 -92.5t90 -28.5q64 0 95.5 28.5t31.5 92.5z" />
    <glyph glyph-name="dotaccent" unicode="&#x2d9;" 
d="M614 1577q-66 0 -108.5 43t-42.5 109t42.5 108.5t108.5 42.5q65 0 108.5 -42.5t43.5 -108.5t-43.5 -109t-108.5 -43z" />
    <glyph glyph-name="ring" unicode="&#x2da;" 
d="M614 1503q-83 0 -138.5 56t-55.5 139t55.5 138.5t138.5 55.5q82 0 138.5 -55.5t56.5 -138.5t-56.5 -139t-138.5 -56zM616 1608q37 0 61.5 26t24.5 64q0 41 -24 63.5t-62 22.5q-41 0 -65.5 -22t-24.5 -64q0 -39 25.5 -64.5t64.5 -25.5z" />
    <glyph glyph-name="ogonek" unicode="&#x2db;" 
d="M467 0h156q-6 -11 -16 -29.5t-32 -69.5t-34 -94t-10.5 -89t26.5 -70q44 -41 107 -50.5t151 7.5v-215q0 1 -21.5 -3t-65 -10t-85.5 -6q-134 0 -225.5 87.5t-91.5 217.5q0 52 12 101.5t33 87t38 63t37 48.5t21 24z" />
    <glyph glyph-name="tilde" unicode="&#x2dc;" horiz-adv-x="1204" 
d="M63 1651l136 -86q79 94 170 94q85 0 151 -41q36 -21 55.5 -31.5t60.5 -22.5t83 -12q51 0 99 20.5t80.5 50t57.5 58.5t36 49l12 21l-121 100q-10 -11 -26.5 -27t-60 -42.5t-77.5 -26.5q-29 0 -84 35q-39 24 -65.5 37t-82 28t-114.5 15q-180 0 -310 -219z" />
    <glyph glyph-name="hungarumlaut" unicode="&#x2dd;" 
d="M272 1538h150l244 385h-289zM729 1538h150l243 385h-288z" />
    <glyph glyph-name="commaaccentcomb" unicode="&#x326;" horiz-adv-x="0" 
d="M53 -801h150l213 559l-291 -4z" />
    <glyph glyph-name="mu" unicode="&#x3bc;" 
d="M991 883v-439v-6v-438h-139l-27 92q-130 -117 -297 -117q-102 0 -200 50v-666h-262v1524h262v-432q0 -92 55 -160q65 -68 145 -68q82 0 144 68q57 67 57 160v432h262z" />
    <glyph glyph-name="Wgrave" unicode="&#x1e80;" horiz-adv-x="2199" 
d="M702 1757l445 -207l123 88l-332 287zM1749 1436h317l-657 -1436h-70l-239 526l-242 -526h-70l-655 1436h318l383 -807l127 241l-277 566h317l373 -795z" />
    <glyph glyph-name="wgrave" unicode="&#x1e81;" horiz-adv-x="1527" 
d="M418 1380l444 -206l123 88l-332 286zM1212 883h254l-458 -883h-35l-209 397l-207 -397h-33l-463 883h254l226 -428l96 184l-127 244h254l225 -428z" />
    <glyph glyph-name="Wacute" unicode="&#x1e82;" horiz-adv-x="2199" 
d="M846 1638l123 -88l444 207l-235 168zM1749 1436h317l-657 -1436h-70l-239 526l-242 -526h-70l-655 1436h318l383 -807l127 241l-277 566h317l373 -795z" />
    <glyph glyph-name="wacute" unicode="&#x1e83;" horiz-adv-x="1527" 
d="M561 1262l123 -88l444 206l-235 168zM1212 883h254l-458 -883h-35l-209 397l-207 -397h-33l-463 883h254l226 -428l96 184l-127 244h254l225 -428z" />
    <glyph glyph-name="Wdieresis" unicode="&#x1e84;" horiz-adv-x="2199" 
d="M696 1548h269v269h-269v-269zM1161 1548h269v269h-269v-269zM1749 1436h317l-657 -1436h-70l-239 526l-242 -526h-70l-655 1436h318l383 -807l127 241l-277 566h317l373 -795z" />
    <glyph glyph-name="wdieresis" unicode="&#x1e85;" horiz-adv-x="1527" 
d="M412 1171h268v269h-268v-269zM877 1171h268v269h-268v-269zM1212 883h254l-458 -883h-35l-209 397l-207 -397h-33l-463 883h254l226 -428l96 184l-127 244h254l225 -428z" />
    <glyph glyph-name="Ygrave" unicode="&#x1ef2;" horiz-adv-x="1406" 
d="M362 1761l445 -207l123 88l-332 287zM997 1436h318l-467 -910v-526h-287v526l-469 910h318l295 -541z" />
    <glyph glyph-name="ygrave" unicode="&#x1ef3;" horiz-adv-x="1261" 
d="M324 1380l444 -206l123 88l-332 286zM115 -641l366 696l-430 828h295l291 -490l270 490h287l-793 -1524h-286z" />
    <glyph glyph-name="endash" unicode="&#x2013;" horiz-adv-x="1171" 
d="M61 596v-238h1049v238h-1049z" />
    <glyph glyph-name="emdash" unicode="&#x2014;" horiz-adv-x="1314" 
d="M133 596v-238h1049v238h-1049z" />
    <glyph glyph-name="quoteleft" unicode="&#x2018;" horiz-adv-x="555" 
d="M410 1456h-150l-127 -428h289z" />
    <glyph glyph-name="quoteright" unicode="&#x2019;" horiz-adv-x="360" 
d="M74 1028h149l127 428h-289z" />
    <glyph glyph-name="quotedblleft" unicode="&#x201c;" horiz-adv-x="802" 
d="M338 1456h-150l-127 -428h289zM729 1456h-149l-127 -428h288z" />
    <glyph glyph-name="quotedblright" unicode="&#x201d;" horiz-adv-x="833" 
d="M43 1028h150l126 428h-288zM465 1028h149l127 428h-288z" />
    <glyph glyph-name="quotedblbase" unicode="&#x201e;" horiz-adv-x="833" 
d="M43 -145h150l126 428h-288zM465 -145h149l127 428h-288z" />
    <glyph glyph-name="ellipsis" unicode="&#x2026;" horiz-adv-x="1134" 
d="M92 0h268v268h-268v-268zM465 0h268v268h-268v-268zM836 0h268v268h-268v-268z" />
    <glyph glyph-name="perthousand" unicode="&#x2030;" horiz-adv-x="1685" 
d="M41 -53l139 -72l994 1608l-144 71zM326 844q-83 -9 -144.5 41t-70.5 133q-9 82 41 143t133 70q80 9 142 -40t71 -132q9 -82 -40.5 -144t-131.5 -71zM317 948q37 5 58.5 34t15.5 67q-4 42 -30 60.5t-64 12.5q-41 -3 -62.5 -27.5t-17.5 -66.5q5 -39 33 -61.5t67 -18.5z
M928 207q-83 -7 -144.5 42.5t-70.5 131.5q-8 84 41.5 145t132.5 68q82 9 144 -40.5t69 -131.5q9 -82 -41.5 -144t-130.5 -71zM1440 207q-83 -7 -144.5 42.5t-70.5 131.5q-8 84 41.5 145t132.5 68q82 9 144 -40.5t69 -131.5q9 -82 -41.5 -144t-130.5 -71zM918 311q36 4 58 33
t19 66q-4 41 -30 60.5t-64 16.5q-41 -5 -63.5 -29.5t-18.5 -64.5q5 -38 33 -61.5t66 -20.5zM1430 311q36 4 58 33t19 66q-4 41 -30 60.5t-64 16.5q-41 -5 -63.5 -29.5t-18.5 -64.5q5 -38 33 -61.5t66 -20.5z" />
    <glyph glyph-name="fraction" unicode="&#x2044;" 
d="M72 -57l110 -49l965 1714l-111 51z" />
    <glyph glyph-name="Euro" unicode="&#x20ac;" horiz-adv-x="1411" 
d="M1128 313l181 -227q-176 -111 -379 -111q-229 0 -414 134.5t-262 349.5h-152v164h113q-6 47 -6 96l2 47h-109v164h136q67 233 258 382.5t434 149.5q194 0 362 -100l-180 -229q-85 43 -182 43q-177 0 -303 -132q-57 -61 -82 -114h377v-164h-424q-2 -16 -2 -47
q0 -44 10 -96h416v-164h-349q27 -39 54 -66q125 -131 303 -131q104 0 198 51z" />
    <glyph glyph-name="uni2153" unicode="&#x2153;" horiz-adv-x="1353" 
d="M332 1165h100v-157h-371v157h113v471h-113v158h271v-629zM72 -57l110 -49l965 1714l-111 51zM948 512h-129q3 51 19 86q18 43 51 76q43 38 74 49q52 20 92 20q44 0 92 -20q33 -11 76 -49q33 -33 51 -76q18 -44 18 -92q0 -46 -18 -92q-21 -48 -51 -74l-2 -2q-2 -3 -4 -4
l6 -4q33 -33 51 -74q18 -47 18 -92q0 -49 -18 -92t-51 -76t-76 -51q-46 -19 -92 -19q-43 0 -92 19q-41 18 -74 51t-51 76q-16 35 -19 84h129q3 -42 34 -71.5t73 -29.5q45 0 76.5 31.5t31.5 77.5q0 43 -30 74.5t-72 31.5h-86v129h92q36 0 66 33t30 74q0 44 -32 76t-76 32
q-43 0 -73.5 -29.5t-33.5 -72.5z" />
    <glyph glyph-name="uni2154" unicode="&#x2154;" horiz-adv-x="1427" 
d="M61 1006l261 360q-30 9 -41 14q-37 14 -70 47q-26 23 -49 70q-19 55 -19 88q0 35 19 86q19 46 49 72q32 32 70 49q46 16 88 16q43 0 86 -16q42 -18 69 -49q35 -30 49 -72q19 -43 19 -86q0 -42 -19 -88q-4 -11 -69 -101.5t-128 -175.5l-63 -85h299v-129h-551zM279 1593
q0 -34 23.5 -58t57.5 -24t57 24t23 58q0 33 -23.5 56.5t-56.5 23.5q-34 0 -57.5 -23.5t-23.5 -56.5zM154 -57l110 -49l965 1714l-111 51zM1022 508h-129q3 53 18 86q17 41 52 76q44 38 73 49q52 20 92 20q45 0 93 -20q31 -11 75 -49q35 -35 52 -76q18 -44 18 -92
q0 -45 -18 -92q-21 -47 -52 -74q-1 -1 -1.5 -2t-1.5 -2t-3 -2l6 -4q34 -34 52 -74q18 -47 18 -92q0 -48 -18 -92q-17 -41 -52 -76q-34 -34 -75 -51q-46 -19 -93 -19q-43 0 -92 19q-40 18 -73 51q-35 35 -52 76q-14 33 -18 84h129q3 -42 33.5 -71.5t72.5 -29.5q45 0 77 32
t32 77q0 43 -30 74.5t-72 31.5h-86v129h92q36 0 66 33t30 74q0 44 -32.5 76t-76.5 32q-42 0 -72.5 -29.5t-33.5 -72.5z" />
    <glyph glyph-name="minus" unicode="&#x2212;" horiz-adv-x="966" 
d="M133 596v-238h701v238h-701z" />
    <glyph glyph-name="approxequal" unicode="&#x2248;" horiz-adv-x="1081" 
d="M113 791v-218q108 105 219 105q57 0 112 -16t92 -35.5t89 -35.5t102 -16q66 0 133.5 30t108.5 71v225q-49 -49 -108 -78.5t-113 -29.5q-39 1 -183.5 51.5t-214.5 50.5q-136 0 -237 -104zM113 401v-217q108 105 219 105q57 0 112 -16t92 -35.5t89 -35.5t102 -16
q66 0 133.5 30t108.5 71v225q-49 -49 -108 -79t-113 -30q-36 1 -109 26.5t-153.5 51t-135.5 25.5q-135 0 -237 -105z" />
    <glyph glyph-name="notequal" unicode="&#x2260;" horiz-adv-x="966" 
d="M956 623h-360l-107 -187h467v-237h-602l-172 -305l-110 49l145 256h-125v237h258l107 187h-365v237h498l188 332l111 -51l-160 -281h227v-237z" />
    <glyph glyph-name="lessequal" unicode="&#x2264;" horiz-adv-x="1130" 
d="M113 860l790 -389l105 211l-574 283l576 278l-103 213l-794 -385v-211zM133 371v-238h885v238h-885z" />
    <glyph glyph-name="greaterequal" unicode="&#x2265;" horiz-adv-x="1130" 
d="M123 682l104 -211l789 389v211l-793 385l-102 -213l575 -278zM113 133h884v238h-884v-238z" />
    <glyph glyph-name="two.dnom" horiz-adv-x="1236" 
d="M61 1006l261 360q-30 9 -41 14q-37 14 -70 47q-26 23 -49 70q-19 55 -19 88q0 35 19 86q19 46 49 72q32 32 70 49q46 16 88 16q43 0 86 -16q42 -18 69 -49q35 -30 49 -72q19 -43 19 -86q0 -42 -19 -88q-4 -11 -69 -101.5t-128 -175.5l-63 -85h299v-129h-551zM279 1593
q0 -34 23.5 -58t57.5 -24t57 24t23 58q0 33 -23.5 56.5t-56.5 23.5q-34 0 -57.5 -23.5t-23.5 -56.5z" />
    <glyph glyph-name="three.dnom" horiz-adv-x="1085" 
d="M190 1579h-129q3 51 19 86q18 43 51 76q43 38 74 49q52 20 92 20q44 0 92 -20q33 -11 76 -49q33 -33 51 -76q19 -46 19 -92q0 -43 -19 -92q-21 -48 -51 -74q-1 -1 -1.5 -2t-1.5 -2t-3 -2l6 -4q33 -33 51 -74q19 -49 19 -92q0 -46 -19 -92q-18 -43 -51 -76t-76 -51
q-46 -19 -92 -19q-43 0 -92 19q-41 18 -74 51t-51 76q-16 35 -19 84h129q3 -42 34 -71.5t73 -29.5q45 0 77 32t32 77q0 43 -30.5 74.5t-72.5 31.5h-86v129h92q36 0 66.5 33t30.5 74q0 44 -32.5 76t-76.5 32q-43 0 -73.5 -29.5t-33.5 -72.5z" />
    <glyph glyph-name="one.numr" horiz-adv-x="493" 
d="M332 1165h100v-157h-371v157h113v471h-113v158h271v-629z" />
    <glyph glyph-name="two.numr" horiz-adv-x="673" 
d="M61 1006l261 360q-30 9 -41 14q-37 14 -70 47q-26 23 -49 70q-19 55 -19 88q0 35 19 86q19 46 49 72q32 32 70 49q46 16 88 16q43 0 86 -16q42 -18 69 -49q35 -30 49 -72q19 -43 19 -86q0 -42 -19 -88q-4 -11 -69 -101.5t-128 -175.5l-63 -85h299v-129h-551zM279 1593
q0 -34 23.5 -58t57.5 -24t57 24t23 58q0 33 -23.5 56.5t-56.5 23.5q-34 0 -57.5 -23.5t-23.5 -56.5z" />
    </font>
</defs>
</svg>
