<svg xmlns="http://www.w3.org/2000/svg" width="58.984" height="59.972" viewBox="0 0 58.984 59.972">
  <path id="Forma_1" data-name="Forma 1" d="M842.7,2704a1.034,1.034,0,0,0-.916.523l-1.666,2.84a5.163,5.163,0,0,0-5.1,8.7l-6.719,11.45a7.236,7.236,0,0,0-10.361,5.341l-7.34-1.158a5.172,5.172,0,1,0-9.108,3.569l-8.254,10.5a1.034,1.034,0,0,0,1.607,1.3.269.269,0,0,0,.02-.025l8.252-10.494a5.13,5.13,0,0,0,2.315.551,5.192,5.192,0,0,0,4.843-3.358l7.637,1.2a7.24,7.24,0,1,0,12.1-6.249l6.775-11.548a5.163,5.163,0,0,0,5.14-8.761l1.651-2.812A1.035,1.035,0,0,0,842.7,2704Zm-4.162,5.182a3.105,3.105,0,0,1,1.361.312,1.048,1.048,0,0,0,.3.166,3.106,3.106,0,0,1-3.129,5.361,1.032,1.032,0,0,0-.32-.2,3.1,3.1,0,0,1,1.787-5.642Zm0,.517a2.593,2.593,0,0,0-2.587,2.585.517.517,0,0,0,1.035.013v-.014a1.544,1.544,0,0,1,1.552-1.551.517.517,0,1,0,.014-1.033Zm-2.925,17.415a1.035,1.035,0,0,0-.679,1.792,12.755,12.755,0,1,1-21.328,11.7,1.035,1.035,0,0,0-2.036.369c0,.012,0,.022.007.034a14.828,14.828,0,0,0,21.95,9.949l11.132,12.66a1.037,1.037,0,0,0,1.46.093c.017-.015.033-.029.048-.046l5.518-5.514a1.032,1.032,0,0,0,0-1.461l-.034-.032-12.523-11.421c.137-.25.27-.5.394-.764a14.818,14.818,0,0,0-3.16-17.069A1.036,1.036,0,0,0,835.616,2727.117Zm-30.183,1.71a3.1,3.1,0,1,1-1.766,5.657h0a1.031,1.031,0,0,0-.291-.23,3.1,3.1,0,0,1,2.058-5.426Zm19.658,0a5.159,5.159,0,0,1,2.816.827,1.037,1.037,0,0,0,.339.238,5.173,5.173,0,1,1-8.322,4.328,1.027,1.027,0,0,0,0-.348A5.154,5.154,0,0,1,825.09,2728.828Zm-19.658.517a2.592,2.592,0,0,0-2.586,2.583.517.517,0,0,0,1.034.015v-.015a1.544,1.544,0,0,1,1.552-1.551.517.517,0,1,0,.015-1.034A.042.042,0,0,1,805.432,2729.345Zm19.658,1.032a3.628,3.628,0,0,0-3.621,3.619.517.517,0,0,0,1.035.015V2734a2.578,2.578,0,0,1,2.587-2.585.517.517,0,1,0,.014-1.034Zm11.427,7.23a.516.516,0,0,0-.509.523,9.872,9.872,0,0,1-9.883,9.876.517.517,0,1,0-.015,1.033h.015a10.921,10.921,0,0,0,10.918-10.909.517.517,0,0,0-.51-.523Zm1.48,9.4,9.054,8.256-3.846,3.571-7.947-9.037A14.749,14.749,0,0,0,838,2747.011Zm9.821,8.957,1.641,1.5-3.972,3.969-1.6-1.817Z" transform="translate(-793.006 -2704.004)" fill="#15263e"/>
</svg>
