<svg xmlns="http://www.w3.org/2000/svg" width="63.997" height="59" viewBox="0 0 63.997 59">
  <path id="Forma_1" data-name="Forma 1" d="M1086.953,2763a.942.942,0,0,1-.952-.931V2704.93a.952.952,0,0,1,1.9,0V2710h2.551a.311.311,0,1,1,0,.622h-2.551v5.589h2.551a.31.31,0,1,1,0,.62h-2.551v5.591h2.551a.31.31,0,1,1,0,.62h-2.551v5.59h2.551a.31.31,0,1,1,0,.62h-2.551v5.59h2.551a.311.311,0,1,1,0,.623h-2.551v5.588h2.551a.311.311,0,1,1,0,.622h-2.551v5.589h2.551a.311.311,0,1,1,0,.621h-2.551v5.59h2.551a.311.311,0,1,1,0,.621h-2.551v7.037h11.536v-3a.317.317,0,0,1,.635,0v3h5.715v-3a.318.318,0,0,1,.635,0v3h5.714v-3a.318.318,0,0,1,.635,0v3h5.715v-3a.318.318,0,0,1,.635,0v3h5.714v-3a.318.318,0,0,1,.635,0v3h5.715v-3a.317.317,0,0,1,.635,0v3h5.715v-3a.318.318,0,0,1,.635,0v3h5.714v-3a.318.318,0,0,1,.635,0v3h4.522a.932.932,0,1,1,0,1.864Zm50.1-7.826V2723.5h7.779v31.673Zm1.27-1.242h5.239v-4.349h-5.239Zm-15.557,1.242v-35.865h7.779v35.865Zm1.27-1.242h5.239v-21.582h-5.239Zm-14.922,1.242v-27.017h7.779v27.017Zm1.27-1.242h5.239v-12.111h-5.239Zm-15.08,1.242v-43.347h7.778v43.347Zm1.27-1.242h5.238v-28.441h-5.238Z" transform="translate(-1086.001 -2703.998)" fill="#15263e"/>
</svg>
