<svg xmlns="http://www.w3.org/2000/svg" width="34.999" height="35" viewBox="0 0 34.999 35">
  <path id="Forma_1" data-name="Forma 1" d="M1245.058,5769.578a2.424,2.424,0,0,1,1.861-2.355v-8.393h-3.165a.559.559,0,0,1,0-1.117h3.724a.558.558,0,0,1,.558.559v8.951a2.421,2.421,0,1,1-2.978,2.355Zm1.117,0a1.3,1.3,0,1,0,1.3-1.3A1.305,1.305,0,0,0,1246.175,5769.578Zm-7.075,0a2.426,2.426,0,0,1,1.863-2.355v-8.393H1237.8a.559.559,0,1,1,0-1.117h3.723a.559.559,0,0,1,.559.559v8.951a2.421,2.421,0,1,1-2.98,2.355Zm1.118,0a1.3,1.3,0,1,0,1.3-1.3A1.3,1.3,0,0,0,1240.219,5769.578Zm14.958-3.167h-1.741a.556.556,0,0,1-.558-.558v-7.024h-3.165a.559.559,0,1,1,0-1.117h3.723a.559.559,0,0,1,.559.559v7.024h1.182a2.42,2.42,0,1,1,0,1.115Zm1.052-.558a1.3,1.3,0,1,0,1.3-1.3A1.306,1.306,0,0,0,1256.228,5765.854Zm-27.181,0a2.421,2.421,0,0,1,4.776-.558h1.182v-6.466h-1.3a6.708,6.708,0,0,1-1.689-13.2,4.837,4.837,0,0,1,4.717-3.805,4.786,4.786,0,0,1,1.447.221,10.574,10.574,0,0,1,19.576,5,6.026,6.026,0,0,1-1.785,11.782h-.3a.559.559,0,1,1,0-1.117h.3a4.908,4.908,0,0,0,1.111-9.689.556.556,0,0,1-.432-.539,9.457,9.457,0,0,0-17.736-4.48.558.558,0,0,1-.71.242,3.712,3.712,0,0,0-5.148,2.919.557.557,0,0,1-.445.475,5.59,5.59,0,0,0,1.094,11.073h1.857a.558.558,0,0,1,.558.559v7.582a.556.556,0,0,1-.558.558h-1.741a2.421,2.421,0,0,1-4.776-.558Zm1.118,0a1.3,1.3,0,1,0,1.3-1.3A1.3,1.3,0,0,0,1230.165,5765.854Zm24.067-17.789a.558.558,0,0,1-.558-.555,6.387,6.387,0,0,0-.44-2.279.558.558,0,0,1,1.04-.407,7.507,7.507,0,0,1,.517,2.675.56.56,0,0,1-.553.565Zm-2.041-4.606a6.462,6.462,0,0,0-4.993-2.364.559.559,0,0,1,0-1.118,7.574,7.574,0,0,1,5.854,2.771.558.558,0,1,1-.86.711Z" transform="translate(-1227 -5736.998)" fill="#fff"/>
</svg>
