<svg xmlns="http://www.w3.org/2000/svg" width="29.005" height="34" viewBox="0 0 29.005 34">
  <path id="Forma_1" data-name="Forma 1" d="M238.879,5145.81l-13.823-18.519a.662.662,0,0,0-.555-.295h0a.547.547,0,0,0-.075,0l-.025,0a.346.346,0,0,0-.045.007l-.032.009-.034.009-.037.013-.022.01a.65.65,0,0,0-.266.207l-13.847,18.55a.607.607,0,0,0-.1.521.633.633,0,0,0,.35.41,13,13,0,0,1,3.406,2.54,11.382,11.382,0,0,1,3.338,7.558H215.2a.643.643,0,0,0-.655.628v2.9a.642.642,0,0,0,.655.627h18.6a.642.642,0,0,0,.655-.627v-2.9a.642.642,0,0,0-.655-.628h-1.915a11.383,11.383,0,0,1,3.339-7.558,13.034,13.034,0,0,1,3.405-2.54.63.63,0,0,0,.351-.409A.6.6,0,0,0,238.879,5145.81Zm-16.632.365a2.169,2.169,0,0,1,2.252-2.063,2.34,2.34,0,0,1,1.6.612,1.963,1.963,0,0,1,.651,1.45,2.167,2.167,0,0,1-2.252,2.063v0A2.165,2.165,0,0,1,222.247,5146.175Zm10.9,13.566H215.852v-1.648h17.294Zm1.157-11.354a12.8,12.8,0,0,0-3.729,8.45H218.423a12.8,12.8,0,0,0-3.729-8.45,14.912,14.912,0,0,0-3.085-2.418l12.235-16.391,0,13.336a3.4,3.4,0,0,0-2.905,3.26,3.448,3.448,0,0,0,3.561,3.316h0a3.45,3.45,0,0,0,3.562-3.317,3.183,3.183,0,0,0-1.051-2.354,3.623,3.623,0,0,0-1.858-.908l0-13.33,12.232,16.386A14.917,14.917,0,0,0,234.3,5148.388Z" transform="translate(-209.996 -5126.996)" fill="#daae19"/>
</svg>
