<svg xmlns="http://www.w3.org/2000/svg" width="95" height="95" viewBox="0 0 95 95">
  <g id="Icon" transform="translate(-233 -6277)">
    <circle id="Ellipse_3" data-name="Ellipse 3" cx="47.5" cy="47.5" r="47.5" transform="translate(233 6277)" fill="#fff"/>
    <path id="Forma_1" data-name="Forma 1" d="M280.491,6345a.669.669,0,0,1-.67-.67v-5.059a.669.669,0,0,1,.67-.67h.01a.67.67,0,0,1,.67.67v5.059a.67.67,0,0,1-.67.67Zm10.468-3.763-3.061-4.112a.648.648,0,0,1,.15-.92.688.688,0,0,1,.944.146l3.061,4.11a.649.649,0,0,1-.15.922.687.687,0,0,1-.944-.146Zm-21.863.146a.652.652,0,0,1-.15-.922l3.062-4.11a.688.688,0,0,1,.944-.146.65.65,0,0,1,.15.92l-3.062,4.112a.683.683,0,0,1-.548.272A.692.692,0,0,1,269.1,6341.384Zm-.086-15.312a11.193,11.193,0,0,1,5.484-9.558l.576-3.935a2.82,2.82,0,0,1,2.726-2.308H283.2a2.817,2.817,0,0,1,2.726,2.309l.576,3.933a11.189,11.189,0,0,1,5.484,9.558,11.493,11.493,0,0,1-22.98,0Zm7.4-13.306-.621,4.247a.662.662,0,0,1-.333.478,9.886,9.886,0,0,0-5.092,8.581,10.141,10.141,0,0,0,20.276,0,9.883,9.883,0,0,0-5.092-8.581.656.656,0,0,1-.331-.478l-.623-4.247a1.452,1.452,0,0,0-1.389-1.174H277.8A1.454,1.454,0,0,0,276.408,6312.766Zm21.691,19.577-4.952-1.569a.658.658,0,0,1-.435-.831.682.682,0,0,1,.852-.425l4.954,1.572a.656.656,0,0,1,.433.832.675.675,0,0,1-.642.455A.7.7,0,0,1,298.1,6332.342Zm-36.052-.422a.658.658,0,0,1,.435-.832l4.954-1.572a.68.68,0,0,1,.85.425.656.656,0,0,1-.433.831l-4.954,1.569a.689.689,0,0,1-.209.033A.678.678,0,0,1,262.048,6331.92Zm21.7-7.421-1.389-1.312-1.39,1.312a.685.685,0,0,1-.94,0l-1.39-1.312-1.39,1.312a.687.687,0,0,1-.777.115.656.656,0,0,1-.361-.682l1.53-10.456a.674.674,0,0,1,.766-.561.663.663,0,0,1,.573.746l-1.252,8.549.441-.417a.688.688,0,0,1,.94,0l1.39,1.313,1.39-1.313a.688.688,0,0,1,.94,0l.441.417-1.242-8.478a.663.663,0,0,1,.575-.747.674.674,0,0,1,.764.561l1.521,10.387a.659.659,0,0,1-.361.68.707.707,0,0,1-.307.073A.686.686,0,0,1,283.749,6324.5Zm8.964-2.3a.655.655,0,0,1,.435-.83l4.952-1.57a.679.679,0,0,1,.852.422.655.655,0,0,1-.433.832l-4.954,1.57a.683.683,0,0,1-.209.034A.674.674,0,0,1,292.712,6322.2Zm-25.276.423-4.954-1.57a.657.657,0,0,1-.435-.832.68.68,0,0,1,.852-.422l4.954,1.57a.653.653,0,0,1,.433.83.676.676,0,0,1-.85.423Zm9.331-13.667a.66.66,0,1,1,0-1.32h7.464a.66.66,0,1,1,0,1.32Zm0-2.638a.659.659,0,1,1,0-1.317h7.464a.659.659,0,1,1,0,1.317Z" fill="#e93656"/>
  </g>
</svg>
