<svg xmlns="http://www.w3.org/2000/svg" width="47" height="60" viewBox="0 0 47 60">
  <path id="Forma_1" data-name="Forma 1" d="M522.918,2760.17a4.65,4.65,0,0,1-3.84-4.567V2749.3a23.724,23.724,0,0,1-10.332-7.756A23.167,23.167,0,0,1,504,2727.422a23.5,23.5,0,0,1,47,0,23.172,23.172,0,0,1-4.747,14.12,23.741,23.741,0,0,1-10.33,7.754v6.306a6.92,6.92,0,0,1-13,4.567Zm4.582,2.066a2.889,2.889,0,0,0,2.747-2h-5.494A2.889,2.889,0,0,0,527.5,2762.237Zm-6.656-6.634a2.885,2.885,0,0,0,2.886,2.876h7.538a2.885,2.885,0,0,0,2.886-2.876v-1.938h-1.944a.881.881,0,1,1,0-1.762h1.944v-2H520.844v2h7.6a.881.881,0,1,1,0,1.762h-7.6Zm-15.078-28.181a21.431,21.431,0,0,0,4.388,13.056,21.918,21.918,0,0,0,11,7.669h12.7a21.917,21.917,0,0,0,11-7.668,21.431,21.431,0,0,0,4.389-13.057,21.733,21.733,0,0,0-43.466,0Zm19.5,15.837c-.579-.23-.8-.824-.662-1.767l1.282-11.311h-5.8a1.728,1.728,0,0,1-1.508-2.881l9.3-13c.547-.784,1.122-1.066,1.706-.834s.8.827.661,1.771l-1.169,9.427h6.792a1.729,1.729,0,0,1,1.508,2.882l-10.4,14.873a1.738,1.738,0,0,1-1.318.92A1.054,1.054,0,0,1,525.263,2743.26Zm-5.249-14.944c-.025.035-.045.069-.061.1a1.01,1.01,0,0,0,.125.007h6.793a.884.884,0,0,1,.878.979l-1.194,10.537,9.366-13.4a.9.9,0,0,0,.066-.106c-.035,0-.076-.005-.124-.005h-7.791a.883.883,0,0,1-.878-.989l1.074-8.658Zm22.491-10.741a17.982,17.982,0,0,0-4.226-4.478.882.882,0,1,1,1.061-1.408,19.759,19.759,0,0,1,4.64,4.917.883.883,0,0,1-1.475.97ZM534.683,2711a17.932,17.932,0,0,0-2.691-.923.881.881,0,1,1,.44-1.707,19.852,19.852,0,0,1,2.959,1.016.881.881,0,1,1-.708,1.614Z" transform="translate(-504 -2703.998)" fill="#15263e"/>
</svg>
