<svg xmlns="http://www.w3.org/2000/svg" width="24" height="31" viewBox="0 0 24 31">
  <path id="Forma_1" data-name="Forma 1" d="M884.286,1918.7c-.389-.374-9.7-9.559-11.027-15.673,0-.08-.026-.134-.026-.188a12.907,12.907,0,0,1-.233-2.456,12.006,12.006,0,1,1,24,0,12.593,12.593,0,0,1-.26,2.617c0,.053-.026.106-.026.159-1.323,5.981-10.585,15.141-10.975,15.54a1.1,1.1,0,0,1-.726.293A.983.983,0,0,1,884.286,1918.7Zm-9.185-18.343a11.375,11.375,0,0,0,.207,2.083.239.239,0,0,1,.026.132c.986,4.539,7.473,11.535,9.678,13.8,2.206-2.269,8.666-9.266,9.652-13.7v-.08a10.6,10.6,0,0,0,.233-2.243,9.9,9.9,0,1,0-19.8,0Zm5.89-1.255a4.023,4.023,0,1,1,4.021,4.138A4.086,4.086,0,0,1,880.991,1899.106Zm2.1,0a1.92,1.92,0,1,0,1.92-1.976A1.943,1.943,0,0,0,883.093,1899.106Z" transform="translate(-873 -1887.998)" fill="#fff"/>
</svg>
