<svg xmlns="http://www.w3.org/2000/svg" width="90" height="90" viewBox="0 0 90 90">
  <g id="Icon" transform="translate(-504 -1858)">
    <g id="Ellipse_1" data-name="Ellipse 1" transform="translate(504 1858)" fill="rgba(0,0,0,0)" stroke="#fff" stroke-width="2" stroke-dasharray="8 4">
      <circle cx="45" cy="45" r="45" stroke="none"/>
      <circle cx="45" cy="45" r="44" fill="none"/>
    </g>
    <path id="Forma_1" data-name="Forma 1" d="M534,1894.943c0-1.915,3.26-4.6,6.009-6.58a2.136,2.136,0,0,1,2.682.257l2.744,2.744a2.247,2.247,0,0,1,.638,1.535,2.029,2.029,0,0,1-.7,1.534c-1.983,1.786-2.241,2.554-2.3,2.682-.386,1.976.571,4.6,2.553,7.022,2.357,2.941,5.746,4.856,8.3,4.856a4.963,4.963,0,0,0,.958-.062c.191-.067.9-.319,2.683-2.3a2.2,2.2,0,0,1,3.063-.062l2.743,2.745a2.129,2.129,0,0,1,.265,2.683c-1.921,2.742-4.6,6-6.581,6C548.879,1918,534,1903.119,534,1894.943Zm6.7-5.555c-3.382,2.362-5.426,4.468-5.426,5.555,0,7.537,14.3,21.839,21.839,21.839,1.019,0,3.191-2.1,5.555-5.426a.8.8,0,0,0-.129-1.092l-2.812-2.812a.911.911,0,0,0-1.277.062c-1.976,2.173-2.872,2.553-3.381,2.682a6.7,6.7,0,0,1-1.216.13c-3,0-6.635-2.105-9.256-5.3-2.234-2.751-3.259-5.684-2.811-8.048.129-.509.509-1.4,2.682-3.38a.946.946,0,0,0,.061-1.278l-2.743-2.743a.877.877,0,0,0-.651-.326A.8.8,0,0,0,540.7,1889.388Zm20.182,12.515a9.056,9.056,0,0,0-2.492-7.979,8.885,8.885,0,0,0-8.36-2.425l-.257-1.216a10.258,10.258,0,0,1,9.514,2.743,10.471,10.471,0,0,1,2.812,9.066Zm-4.658-.632a4.512,4.512,0,0,0-1.277-4.021,4.628,4.628,0,0,0-4.216-1.215l-.258-1.215a5.709,5.709,0,0,1,5.365,1.535,5.818,5.818,0,0,1,1.6,5.106Z" fill="#fff"/>
  </g>
</svg>
