<svg xmlns="http://www.w3.org/2000/svg" width="55.023" height="60.999" viewBox="0 0 55.023 60.999">
  <path id="Forma_1" data-name="Forma 1" d="M1385.746,2405.013a.753.753,0,0,1-.758-.746v-59.506a.752.752,0,0,1,.758-.747h8.69a.751.751,0,0,1,.758.747v14.914l3.025,2.981,1.8-1.777a.766.766,0,0,1,1.072,0,.742.742,0,0,1,0,1.058l-1.8,1.777,10.046,9.9,2.5-6.179a.741.741,0,0,1,.168-.252l22.776-22.454a.766.766,0,0,1,1.072,0l3.941,3.885a.739.739,0,0,1,0,1.057l-22.776,22.454a.763.763,0,0,1-.255.167l-6.269,2.46,22.692,22.37a.74.74,0,0,1,0,1.057.766.766,0,0,1-1.072,0l-2.117-2.087h-34.8v8.173a.752.752,0,0,1-.758.746Zm.758-1.494h7.174v-58.01H1386.5v1.328h1.3a.747.747,0,1,1,0,1.494h-1.3v2.354h1.3a.747.747,0,1,1,0,1.494h-1.3v2.353h1.3a.747.747,0,1,1,0,1.494h-1.3v2.354h1.3a.747.747,0,1,1,0,1.493h-1.3v2.354h1.3a.748.748,0,1,1,0,1.495h-1.3v2.352h1.3a.748.748,0,1,1,0,1.495h-1.3v2.353h1.3a.747.747,0,1,1,0,1.494h-1.3v2.354h1.3a.748.748,0,1,1,0,1.495h-1.3v2.352h1.3a.747.747,0,1,1,0,1.494h-1.3v2.353h1.3a.747.747,0,1,1,0,1.494h-1.3v2.353h1.3a.747.747,0,1,1,0,1.494h-1.3v2.353h1.3a.748.748,0,1,1,0,1.5h-1.3V2393h1.3a.747.747,0,1,1,0,1.494h-1.3v2.353h1.3a.748.748,0,1,1,0,1.5h-1.3v2.352h1.3a.747.747,0,1,1,0,1.494h-1.3Zm8.689-8.919h33.282l-3.688-3.637-2.156,2.126a.767.767,0,0,1-1.072,0,.739.739,0,0,1,0-1.057l2.156-2.126-1.687-1.663-2.156,2.125a.764.764,0,0,1-1.072,0,.739.739,0,0,1,0-1.056l2.156-2.126-1.687-1.663-2.156,2.126a.766.766,0,0,1-1.072,0,.738.738,0,0,1,0-1.056l2.156-2.127-1.687-1.663-2.156,2.126a.766.766,0,0,1-1.072,0,.739.739,0,0,1,0-1.057l2.157-2.127-1.687-1.662-2.157,2.126a.766.766,0,0,1-1.072,0,.743.743,0,0,1,0-1.058l2.157-2.126-1.687-1.663-2.156,2.127a.764.764,0,0,1-1.072,0,.741.741,0,0,1,0-1.058l2.156-2.125-1.687-1.663-2.156,2.126a.768.768,0,0,1-1.072,0,.741.741,0,0,1,0-1.058l2.156-2.125-1.687-1.663-2.156,2.126a.766.766,0,0,1-1.072,0,.739.739,0,0,1,0-1.056l2.156-2.127-1.687-1.662-2.156,2.125a.763.763,0,0,1-1.072,0,.739.739,0,0,1,0-1.056l2.157-2.125-1.687-1.663-2.156,2.126a.766.766,0,0,1-1.072,0,.741.741,0,0,1,0-1.058l2.156-2.126-3.689-3.637Zm16.091-21.767,3.843-1.51-2.313-2.278Zm4.295-3.177.9.885,18.847-18.579-.9-.887Zm-1.971-1.944.9.886,18.847-18.58-.9-.885Zm19.919-19.636,2.869,2.829,1.785-1.761-2.868-2.826Zm4.671,56.108-.048-.047a.742.742,0,0,1,0-1.058.768.768,0,0,1,1.071,0l.048.048a.74.74,0,0,1,0,1.058.767.767,0,0,1-1.072,0Zm-1.9-1.873-2.339-2.306a.739.739,0,0,1,0-1.056.763.763,0,0,1,1.072,0l2.338,2.307a.737.737,0,0,1,0,1.055.765.765,0,0,1-1.071,0Zm-35.3-12.69a.753.753,0,0,1-.758-.748v-13.261a.747.747,0,0,1,.468-.69.768.768,0,0,1,.826.161l13.451,13.262a.741.741,0,0,1,.164.814.759.759,0,0,1-.7.462Zm.758-1.495h10.864l-10.864-10.71Zm.113-28.016a.738.738,0,0,1,0-1.056l2.338-2.308a.766.766,0,0,1,1.072,0,.74.74,0,0,1,0,1.057l-2.338,2.306a.766.766,0,0,1-1.072,0Zm4.189-4.131a.741.741,0,0,1,0-1.057l2.339-2.306a.766.766,0,0,1,1.072,0,.74.74,0,0,1,0,1.057l-2.339,2.3a.766.766,0,0,1-1.072,0Zm4.19-4.13a.739.739,0,0,1,0-1.056l2.339-2.307a.766.766,0,0,1,1.072,0,.741.741,0,0,1,0,1.058l-2.339,2.306a.766.766,0,0,1-1.072,0Zm4.19-4.131a.739.739,0,0,1,0-1.057l.121-.121a.768.768,0,0,1,1.072,0,.742.742,0,0,1,0,1.058l-.121.118a.765.765,0,0,1-1.072,0Z" transform="translate(-1384.988 -2344.014)" fill="#15263e"/>
</svg>
