<svg xmlns="http://www.w3.org/2000/svg" width="39" height="26.001" viewBox="0 0 39 26.001">
  <path id="Forma_1" data-name="Forma 1" d="M1193.561,3347.453a8.276,8.276,0,1,1-8.523,8.272l-.038-1.182A16.8,16.8,0,0,1,1202.046,3338v4.727a12.283,12.283,0,0,0-8.609,3.462,12.138,12.138,0,0,0-1.211,1.366A9.045,9.045,0,0,1,1193.561,3347.453Zm21.916,0a8.277,8.277,0,1,1-8.523,8.272l-.038-1.182A16.8,16.8,0,0,1,1223.962,3338v4.727a12.283,12.283,0,0,0-8.609,3.462,12.138,12.138,0,0,0-1.211,1.366A9.047,9.047,0,0,1,1215.477,3347.453Z" transform="translate(-1185 -3337.997)" fill="#fff"/>
</svg>
