<svg xmlns="http://www.w3.org/2000/svg" width="61" height="60.999" viewBox="0 0 61 60.999">
  <path id="Forma_1" data-name="Forma 1" d="M820.65,2405a1.042,1.042,0,0,1-1.009-.715l-1.282-3.913a27.446,27.446,0,0,1-5.213-1.389l-3.048,2.736a1.047,1.047,0,0,1-1.22.126l-3.236-1.872a1.076,1.076,0,0,1-.5-1.136l.841-4.019a25.811,25.811,0,0,1-3.8-3.785l-4.015.841a1.06,1.06,0,0,1-1.135-.5l-1.871-3.239a1.051,1.051,0,0,1,.126-1.22l2.733-3.05a26.367,26.367,0,0,1-1.388-5.2l-3.91-1.283a1.067,1.067,0,0,1-.715-1.009v-3.744a1.025,1.025,0,0,1,.715-.989l3.91-1.283a27.576,27.576,0,0,1,1.388-5.216l-2.733-3.05a1.047,1.047,0,0,1-.126-1.22l1.871-3.218a1.076,1.076,0,0,1,1.135-.506l4.015.842a25.95,25.95,0,0,1,3.784-3.807l-.841-4.018a1.06,1.06,0,0,1,.5-1.136l3.237-1.873a1.051,1.051,0,0,1,1.219.127l3.069,2.734a25.054,25.054,0,0,1,5.191-1.389l1.262-3.912a1.068,1.068,0,0,1,1.009-.715h3.741a1.089,1.089,0,0,1,1.009.715l1.282,3.912a27.9,27.9,0,0,1,5.192,1.389l3.047-2.734a1.047,1.047,0,0,1,1.22-.127l3.216,1.893a1.078,1.078,0,0,1,.5,1.137l-.841,4.018a25.868,25.868,0,0,1,3.805,3.785l4.015-.842a1.061,1.061,0,0,1,1.135.506l1.871,3.238a1.049,1.049,0,0,1-.127,1.22l-2.732,3.049a24.991,24.991,0,0,1,1.388,5.2l3.91,1.283a1.117,1.117,0,0,1,.757.968v3.744a1.043,1.043,0,0,1-.715,1.01l-3.911,1.282a27.858,27.858,0,0,1-1.387,5.2l2.732,3.049a1.047,1.047,0,0,1,.126,1.22l-1.87,3.24a1.074,1.074,0,0,1-1.136.5l-4.014-.842a25.9,25.9,0,0,1-3.784,3.807l.841,4.019a1.062,1.062,0,0,1-.5,1.136l-3.236,1.872a1.051,1.051,0,0,1-1.22-.126l-3.048-2.736a24.8,24.8,0,0,1-5.191,1.389l-1.283,3.913a1.067,1.067,0,0,1-1.009.715Zm-7.357-8.182a23.966,23.966,0,0,0,6.053,1.6,1.046,1.046,0,0,1,.925,1.031l1.135,3.471h2.208l1.135-3.471a1.064,1.064,0,0,1,.924-1.031,24.1,24.1,0,0,0,6.034-1.619,1.038,1.038,0,0,1,1.3.42l2.733,2.44,1.912-1.115-.757-3.576a1.043,1.043,0,0,1,.274-1.346,24.457,24.457,0,0,0,4.414-4.439,1.039,1.039,0,0,1,1.345-.272l3.574.756,1.114-1.913-2.439-2.735a1.039,1.039,0,0,1-.42-1.283,24.016,24.016,0,0,0,1.6-6.057,1.044,1.044,0,0,1,1.031-.925l3.468-1.137h.022v-2.229l-3.469-1.137a1.06,1.06,0,0,1-1.03-.925,24.133,24.133,0,0,0-1.619-6.058,1.046,1.046,0,0,1,.42-1.3l2.439-2.732-1.114-1.915-3.595.758a1.041,1.041,0,0,1-1.346-.274,24.508,24.508,0,0,0-4.435-4.417,1.042,1.042,0,0,1-.273-1.346l.756-3.576-1.912-1.116-2.732,2.441a1.037,1.037,0,0,1-1.282.42,24.047,24.047,0,0,0-6.053-1.6,1.046,1.046,0,0,1-.925-1.031l-1.135-3.47h-2.207l-1.136,3.47a1.063,1.063,0,0,1-.924,1.031,24.158,24.158,0,0,0-6.033,1.618,1.039,1.039,0,0,1-1.3-.418l-2.733-2.441-1.912,1.115.757,3.576a1.044,1.044,0,0,1-.274,1.346,24.471,24.471,0,0,0-4.414,4.438,1.04,1.04,0,0,1-1.346.273l-3.595-.756-1.114,1.914,2.438,2.733a1.04,1.04,0,0,1,.421,1.283,24.032,24.032,0,0,0-1.6,6.058,1.045,1.045,0,0,1-1.031.926L794.1,2373.4v2.208l3.469,1.2a1.026,1.026,0,0,1,1.031.9,24.167,24.167,0,0,0,1.618,6.036,1.043,1.043,0,0,1-.42,1.3l-2.438,2.734,1.113,1.914,3.595-.757a1.042,1.042,0,0,1,1.346.274,23.856,23.856,0,0,0,4.435,4.417,1.043,1.043,0,0,1,.274,1.346l-.757,3.576,1.912,1.114,2.732-2.439a1,1,0,0,1,.88-.5A1.109,1.109,0,0,1,813.293,2396.815Zm1.829-22.317a7.357,7.357,0,1,1,7.357,7.363A7.369,7.369,0,0,1,815.122,2374.5Zm2.1,0a5.255,5.255,0,1,0,5.254-5.259A5.258,5.258,0,0,0,817.224,2374.5Zm1.576,0a3.7,3.7,0,0,1,3.678-3.681.526.526,0,0,1,0,1.052,2.629,2.629,0,0,0-2.627,2.629.526.526,0,1,1-1.051,0Z" transform="translate(-792 -2343.998)" fill="#15263e"/>
</svg>
