<svg xmlns="http://www.w3.org/2000/svg" width="59" height="59" viewBox="0 0 59 59">
  <path id="Forma_1" data-name="Forma 1" d="M1412.5,2701a29.5,29.5,0,1,0,29.5,29.5A29.527,29.527,0,0,0,1412.5,2701Zm20.179,13.8-8.569,8.569a13.621,13.621,0,0,0-4.088-4.219l8.536-8.535A24.92,24.92,0,0,1,1432.679,2714.8Zm-20.179,25.412a9.714,9.714,0,1,1,9.714-9.714A9.715,9.715,0,0,1,1412.5,2740.211Zm12.755-31.855-9.027,9.027a13.879,13.879,0,0,0-3.728-.523,13.549,13.549,0,0,0-3.99.589l-8.994-8.994a25.517,25.517,0,0,1,25.739-.1Zm-29.009,2.388,8.536,8.536a13.369,13.369,0,0,0-4.023,4.318l-8.569-8.6A24.95,24.95,0,0,1,1396.245,2710.744Zm-6.247,7.619,9.19,9.191a14.505,14.505,0,0,0-.327,2.944,13.865,13.865,0,0,0,.523,3.728l-9.027,9.027a25.444,25.444,0,0,1-.36-24.889Zm2.616,28.192,8.5-8.535a14.35,14.35,0,0,0,4.219,4.087l-8.536,8.569A24.9,24.9,0,0,1,1392.615,2746.555Zm7.522,6.345,9.092-9.092c.033-.033.033-.066.065-.066a13.262,13.262,0,0,0,3.238.394,14.487,14.487,0,0,0,2.943-.327h0l9.19,9.19a25.635,25.635,0,0,1-24.529-.1Zm27.865-2.092-8.6-8.6a14.081,14.081,0,0,0,4.317-4.022l8.536,8.536A23.99,23.99,0,0,1,1428,2750.808Zm6.541-7.327-8.994-8.994a13.385,13.385,0,0,0,.589-3.99,12.838,12.838,0,0,0-.392-3.205l9.157-9.158a25.473,25.473,0,0,1,3.205,12.363A25.752,25.752,0,0,1,1434.543,2743.481Z" transform="translate(-1383 -2700.998)" fill="#15263e"/>
</svg>
